<svg xmlns="http://www.w3.org/2000/svg" xmlns:xlink="http://www.w3.org/1999/xlink" width="100" height="100" viewBox="0 0 100 100">
  <defs>
    <linearGradient id="linear-gradient" x1="0.5" y1="1" x2="0.5" gradientUnits="objectBoundingBox">
      <stop offset="0" stop-color="gray" stop-opacity="0.251"/>
      <stop offset="0.54" stop-color="gray" stop-opacity="0.122"/>
      <stop offset="1" stop-color="gray" stop-opacity="0.102"/>
    </linearGradient>
  </defs>
  <g id="undraw_back_to_school_inwc" transform="translate(0.01 -0.005)">
    <ellipse id="Ellipse_160" data-name="Ellipse 160" cx="31.795" cy="2.3" rx="31.795" ry="2.3" transform="translate(20.215 95.405)" fill="#6c63ff" opacity="0.1"/>
    <path id="Path_923" data-name="Path 923" d="M627.121,616.237l-.273.536-1.691,3.362-1.436.579-1.071-1.4.052-.925.267-4.8s-6.627-5.21-7.219-6.185-2.871-1.858-2.871-1.858a12.664,12.664,0,0,1-4.785-5.939c-1.3-3.777,2.165-4.355,2.165-4.355l13.012,16.632Z" transform="translate(-557.1 -527.55)" fill="#ffc1c7"/>
    <path id="Path_924" data-name="Path 924" d="M741.16,771.647l-4.124,5.147a11.644,11.644,0,0,1-4.489.183c-1.354-.273-1.094-1.266-.737-1.949l.006-.012a1.547,1.547,0,0,1,.879-.772,3.98,3.98,0,0,0,2.359-2.262l1.276,1.462L738.54,770l1.634,1.026Z" transform="translate(-669.544 -681.011)" fill="#575988"/>
    <line id="Line_2" data-name="Line 2" y1="4.791" x2="4.118" transform="translate(66.512 90.077)" fill="#fff"/>
    <path id="Path_925" data-name="Path 925" d="M627.73,617.585l-.971-.609.091-.185.273-.536L623.27,611.9,610.259,595.27s-3.464.576-2.165,4.353a12.663,12.663,0,0,0,4.785,5.939s2.279.883,2.871,1.858,7.224,6.183,7.224,6.183l-.267,4.8-.013.229-.085-.1a3.98,3.98,0,0,1-2.359,2.262,1.548,1.548,0,0,0-.879.772l-.006.012c-.365.682-.617,1.675.737,1.949a11.643,11.643,0,0,0,4.489-.183l4.124-5.147Z" transform="translate(-557.1 -527.567)" opacity="0.1"/>
    <path id="Path_926" data-name="Path 926" d="M63.3,469.55c1.582,9.039,4.932,16.853,10.225,20.643,11,7.872,35.814,3.812,54.331-.853,9.357-2.349,17.851-8.838,24.113-18.424Z" transform="translate(-62.229 -417.163)" fill="#6c63ff" opacity="0.1"/>
    <path id="Path_927" data-name="Path 927" d="M185.908,49.408h-10.16a1.235,1.235,0,0,1,0-2.348H177.5c-.485,0-.878-.525-.878-1.173s.393-1.173.878-1.173H176.25a1.235,1.235,0,0,1,0-2.348h5.3a11.439,11.439,0,0,0-4.137-1.524c-14.46-2.482-19.623-.841-21.444.853a18.183,18.183,0,0,1-7.432,4.354c-8.922,2.46-25.606,5.419-40.729-.948-7.516-3.167-13.1,2.183-16.451,11.12h96.312a27.046,27.046,0,0,0-1.193-7.1A.761.761,0,0,1,185.908,49.408Z" transform="translate(-87.731 -39.57)" fill="#6c63ff" opacity="0.1"/>
    <path id="Path_928" data-name="Path 928" d="M51.659,314.67a79.763,79.763,0,0,0,.394,15.772l89.206,4.36a60.389,60.389,0,0,0,6.2-12.633Zm35.282,11.248H85.185a.858.858,0,0,1,.785.576,1.521,1.521,0,0,1,0,1.2.857.857,0,0,1-.785.576H75.024a1.235,1.235,0,0,1,0-2.348h1.756c-.485,0-.878-.525-.878-1.173s.393-1.173.878-1.173H75.526a1.235,1.235,0,0,1,0-2.348h10.16a1.235,1.235,0,0,1,0,2.348h1.254c.485,0,.878.525.878,1.173S87.426,325.918,86.941,325.918Z" transform="translate(-51.45 -281.152)" fill="#6c63ff" opacity="0.1"/>
    <path id="Path_929" data-name="Path 929" d="M153.721,176.86l-97.391,3.167A66.914,66.914,0,0,0,54,193.469h98.015a72.1,72.1,0,0,0,1.416-8.568A54.118,54.118,0,0,0,153.721,176.86ZM73.772,187.232H72.016a.858.858,0,0,1,.785.576,1.521,1.521,0,0,1,0,1.2.858.858,0,0,1-.785.576H61.855a1.235,1.235,0,0,1,0-2.348h1.756c-.485,0-.878-.525-.878-1.173s.393-1.173.878-1.173H62.357a1.235,1.235,0,0,1,0-2.348h10.16a1.235,1.235,0,0,1,0,2.348h1.254c.485,0,.878.525.878,1.173S74.257,187.232,73.772,187.232Z" transform="translate(-53.776 -160.13)" fill="#6c63ff" opacity="0.1"/>
    <g id="Group_23" data-name="Group 23" transform="translate(72.051 33.223)" opacity="0.1">
      <path id="Path_930" data-name="Path 930" d="M848.76,377.024s2.57-8.467,7.37-11.608a12.535,12.535,0,0,0,4.7-6.1,28.336,28.336,0,0,0,1.179-3.956" transform="translate(-848.146 -350.108)" fill="none" stroke="#535461" stroke-miterlimit="10" stroke-width="2"/>
      <path id="Path_931" data-name="Path 931" d="M996.4,315.5c-.5.841-3.09,2.071-3.09,2.071s.312-3.649.812-4.489a1.341,1.341,0,0,1,1.381-.815,1.623,1.623,0,0,1,1.181,1.256,2.466,2.466,0,0,1-.283,1.981Z" transform="translate(-979.52 -312.249)" fill="#6c63ff"/>
      <path id="Path_932" data-name="Path 932" d="M983.215,365.938c-.762.342-3.435-.509-3.435-.509s1.745-2.836,2.508-3.178a1.18,1.18,0,0,1,1.494.315,2.361,2.361,0,0,1,.482,1.916A1.8,1.8,0,0,1,983.215,365.938Z" transform="translate(-967.223 -356.031)" fill="#6c63ff"/>
      <path id="Path_933" data-name="Path 933" d="M936.953,430.538c-.787-.219-2.773-2.757-2.773-2.757s2.579-1.271,3.365-1.053a2.058,2.058,0,0,1,1.043,2.277C938.432,430.013,937.715,430.685,936.953,430.538Z" transform="translate(-925.78 -412.76)" fill="#6c63ff"/>
      <path id="Path_934" data-name="Path 934" d="M882.872,470.021c-.8-.037-3.082-2.091-3.082-2.091s2.381-1.835,3.184-1.8a1.437,1.437,0,0,1,1.318,1,2.52,2.52,0,0,1-.053,2.022A1.367,1.367,0,0,1,882.872,470.021Z" transform="translate(-876.347 -447.385)" fill="#6c63ff"/>
      <path id="Path_935" data-name="Path 935" d="M952.452,354.939c.1,1.066,1.843,3.907,1.843,3.907s1.147-3.338,1.044-4.4c-.148-1.007-.855-1.689-1.617-1.558A1.881,1.881,0,0,0,952.452,354.939Z" transform="translate(-942.383 -347.921)" fill="#6c63ff"/>
      <path id="Path_936" data-name="Path 936" d="M892.458,398.178c.336.975,2.634,2.991,2.634,2.991s.345-3.643.009-4.618a1.305,1.305,0,0,0-1.891-.839A2.241,2.241,0,0,0,892.458,398.178Z" transform="translate(-887.772 -385.386)" fill="#6c63ff"/>
      <path id="Path_937" data-name="Path 937" d="M842.047,454.341c.209,1.038,2.218,3.543,2.218,3.543s.8-3.512.594-4.55c-.245-.976-1.016-1.53-1.76-1.263A2.052,2.052,0,0,0,842.047,454.341Z" transform="translate(-842.018 -434.978)" fill="#6c63ff"/>
      <path id="Path_938" data-name="Path 938" d="M996.4,315.5c-.5.841-3.09,2.071-3.09,2.071s.312-3.649.812-4.489a1.341,1.341,0,0,1,1.381-.815,1.623,1.623,0,0,1,1.181,1.256,2.466,2.466,0,0,1-.283,1.981Z" transform="translate(-979.52 -312.249)" opacity="0.25"/>
      <path id="Path_939" data-name="Path 939" d="M983.215,365.938c-.762.342-3.435-.509-3.435-.509s1.745-2.836,2.508-3.178a1.18,1.18,0,0,1,1.494.315,2.361,2.361,0,0,1,.482,1.916A1.8,1.8,0,0,1,983.215,365.938Z" transform="translate(-967.223 -356.031)" opacity="0.25"/>
      <path id="Path_940" data-name="Path 940" d="M936.953,430.538c-.787-.219-2.773-2.757-2.773-2.757s2.579-1.271,3.365-1.053a2.058,2.058,0,0,1,1.043,2.277C938.432,430.013,937.715,430.685,936.953,430.538Z" transform="translate(-925.78 -412.76)" opacity="0.25"/>
      <path id="Path_941" data-name="Path 941" d="M882.872,470.021c-.8-.037-3.082-2.091-3.082-2.091s2.381-1.835,3.184-1.8a1.437,1.437,0,0,1,1.318,1,2.52,2.52,0,0,1-.053,2.022A1.367,1.367,0,0,1,882.872,470.021Z" transform="translate(-876.347 -447.385)" opacity="0.25"/>
      <path id="Path_942" data-name="Path 942" d="M952.452,354.939c.1,1.066,1.843,3.907,1.843,3.907s1.147-3.338,1.044-4.4c-.148-1.007-.855-1.689-1.617-1.558A1.881,1.881,0,0,0,952.452,354.939Z" transform="translate(-942.383 -347.921)" opacity="0.25"/>
      <path id="Path_943" data-name="Path 943" d="M892.458,398.178c.336.975,2.634,2.991,2.634,2.991s.345-3.643.009-4.618a1.305,1.305,0,0,0-1.891-.839A2.241,2.241,0,0,0,892.458,398.178Z" transform="translate(-887.772 -385.386)" opacity="0.25"/>
      <path id="Path_944" data-name="Path 944" d="M842.047,454.341c.209,1.038,2.218,3.543,2.218,3.543s.8-3.512.594-4.55c-.245-.976-1.016-1.53-1.76-1.263A2.052,2.052,0,0,0,842.047,454.341Z" transform="translate(-842.018 -434.978)" opacity="0.25"/>
    </g>
    <g id="Group_24" data-name="Group 24" transform="translate(65.948 14.585)" opacity="0.1">
      <path id="Path_945" data-name="Path 945" d="M803.86,232.314s.324-9.127,4.073-14.218a15.978,15.978,0,0,0,2.921-7.838,31.075,31.075,0,0,0,.128-4.258" transform="translate(-801.236 -200.305)" fill="none" stroke="#535461" stroke-miterlimit="10" stroke-width="2"/>
      <path id="Path_946" data-name="Path 946" d="M879.716,161.72c-.263,1.016-2.4,3.321-2.4,3.321s-.611-3.58-.348-4.6c.3-.946,1.1-1.421,1.822-1.084A2.136,2.136,0,0,1,879.716,161.72Z" transform="translate(-867.619 -159.253)" fill="#6c63ff"/>
      <path id="Path_947" data-name="Path 947" d="M883.147,209.748c-.638.66-3.367,1.043-3.367,1.043s.943-3.45,1.577-4.11a1.23,1.23,0,0,1,1.971.412A2.438,2.438,0,0,1,883.147,209.748Z" transform="translate(-870.236 -200.605)" fill="#6c63ff"/>
      <path id="Path_948" data-name="Path 948" d="M855.371,284.953c-.8.143-3.3-1.372-3.3-1.372s2.117-2.341,2.917-2.484c.767-.07,1.443.667,1.545,1.686a1.971,1.971,0,0,1-1.159,2.17Z" transform="translate(-845.051 -266.249)" fill="#6c63ff"/>
      <path id="Path_949" data-name="Path 949" d="M819.225,339.571c-.767.322-3.425-.609-3.425-.609s1.79-2.785,2.558-3.105a1.187,1.187,0,0,1,1.494.352,2.38,2.38,0,0,1,.452,1.935,1.767,1.767,0,0,1-1.078,1.426Z" transform="translate(-812.087 -314.224)" fill="#6c63ff"/>
      <path id="Path_950" data-name="Path 950" d="M846.4,213.954c.365.96,2.709,2.869,2.709,2.869s.253-3.655-.108-4.616a1.286,1.286,0,0,0-1.912-.754A2.275,2.275,0,0,0,846.4,213.954Z" transform="translate(-839.792 -204.911)" fill="#6c63ff"/>
      <path id="Path_951" data-name="Path 951" d="M804.064,274.6c.56.771,3.227,1.654,3.227,1.654s-.577-3.591-1.137-4.363a1.208,1.208,0,0,0-2,.043A2.447,2.447,0,0,0,804.064,274.6Z" transform="translate(-801.104 -257.726)" fill="#6c63ff"/>
      <path id="Path_952" data-name="Path 952" d="M775.267,344.442c.456.887,2.971,2.36,2.971,2.36s-.116-3.669-.569-4.556a1.228,1.228,0,0,0-1.965-.4,2.379,2.379,0,0,0-.437,2.592Z" transform="translate(-775.068 -319.303)" fill="#6c63ff"/>
    </g>
    <path id="Path_953" data-name="Path 953" d="M463.162,125.043s-2.172-.174-1.914,1.86a.559.559,0,0,0,.193.523s0-.151.222-.1a.731.731,0,0,0,.236.016.438.438,0,0,0,.289-.16h0s.611-.337.848-1.671a1.417,1.417,0,0,0,.169-.365l-.365.21a1.15,1.15,0,0,1,.026.647s-.012-.635-.082-.62a2.171,2.171,0,0,0-.19.122,1.888,1.888,0,0,1,.053,1.064,2.262,2.262,0,0,0-.12-1.018l-.258.2a1.98,1.98,0,0,1,.081,1.155,2.845,2.845,0,0,0-.135-1.106l-.234.244a1.923,1.923,0,0,1,.091,1.057s-.018-.927-.143-1a1.813,1.813,0,0,0-.235.34,1.288,1.288,0,0,1,.061.7,2.666,2.666,0,0,0-.112-.62,2.423,2.423,0,0,0-.225.69,1.855,1.855,0,0,1,.176-.731.584.584,0,0,0-.313.216.373.373,0,0,1,.365-.314,1.857,1.857,0,0,1,.213-.329,1.006,1.006,0,0,0-.528.082.5.5,0,0,1,.588-.15l.232-.251a1.447,1.447,0,0,0-.617.007s.211-.244.679-.065l.252-.2a1.708,1.708,0,0,0-.59-.068.7.7,0,0,1,.664.013l.182-.107s-.273-.071-.35-.083-.083-.04-.083-.04a.721.721,0,0,1,.508.076S463.169,125.076,463.162,125.043Z" transform="translate(-423.885 -114.623)" fill="#6c63ff" opacity="0.1"/>
    <path id="Path_954" data-name="Path 954" d="M418.089,206.173s-.742,2.735.79,2.985a.307.307,0,0,0,.43-.1s-.108-.048-.008-.313a1.628,1.628,0,0,0,.075-.3.865.865,0,0,0-.032-.415h0a2.381,2.381,0,0,0-.958-1.561s-.16-.308-.215-.32l.046.529a.528.528,0,0,1,.472.15s-.456-.164-.469-.071c0,.019.034.279.034.279a.867.867,0,0,1,.778.234s-.527-.294-.765-.135l.071.389a.9.9,0,0,1,.851.224s-.559-.283-.832-.141l.108.365a.886.886,0,0,1,.785.182s-.67-.244-.756-.1a2.086,2.086,0,0,0,.178.4s.372-.078.516.122c0,0-.46-.1-.477-.032a1.814,1.814,0,0,0,.43.487,1.162,1.162,0,0,1-.472-.431,1.061,1.061,0,0,0,.067.456s-.2-.122-.122-.553a2.125,2.125,0,0,1-.176-.365,2.333,2.333,0,0,0-.091.7,1.026,1.026,0,0,1,.06-.8l-.115-.365a3.11,3.11,0,0,0-.17.792,1.288,1.288,0,0,1,.146-.888l-.073-.379a3.734,3.734,0,0,0-.216.731,1.528,1.528,0,0,1,.2-.845l-.026-.262s-.128.327-.159.425-.053.1-.053.1a1.51,1.51,0,0,1,.2-.63A3.894,3.894,0,0,0,418.089,206.173Z" transform="translate(-384.516 -185.852)" fill="#6c63ff" opacity="0.1"/>
    <path id="Path_955" data-name="Path 955" d="M576.126,187.254s-.743,2.734.79,2.984a.306.306,0,0,0,.429-.1s-.107-.048-.008-.314a1.626,1.626,0,0,0,.078-.3.849.849,0,0,0-.033-.414h0a2.385,2.385,0,0,0-.958-1.562s-.159-.308-.214-.32l.046.53a.525.525,0,0,1,.472.149s-.456-.164-.468-.069c0,.018.034.279.034.279a.861.861,0,0,1,.778.234s-.526-.295-.765-.135l.071.387a.9.9,0,0,1,.852.224s-.559-.283-.832-.14l.108.365a.886.886,0,0,1,.785.182s-.67-.244-.756-.1a2.127,2.127,0,0,0,.177.4s.373-.078.517.122c0,0-.461-.1-.477-.033a1.814,1.814,0,0,0,.43.487,1.168,1.168,0,0,1-.473-.432,1.059,1.059,0,0,0,.067.462s-.2-.122-.123-.554a2.087,2.087,0,0,1-.175-.365,2.294,2.294,0,0,0-.091.7,1.025,1.025,0,0,1,.061-.8l-.116-.365a3.079,3.079,0,0,0-.169.793,1.292,1.292,0,0,1,.146-.889l-.073-.379a3.7,3.7,0,0,0-.216.731,1.524,1.524,0,0,1,.2-.845l-.026-.261s-.128.326-.158.424-.053.1-.053.1a1.493,1.493,0,0,1,.2-.63A4.067,4.067,0,0,0,576.126,187.254Z" transform="translate(-528.147 -169.237)" fill="#6c63ff" opacity="0.1"/>
    <path id="Path_956" data-name="Path 956" d="M317.9,159.143s-.743,2.735.79,2.984a.3.3,0,0,0,.429-.1s-.107-.048-.008-.313a1.706,1.706,0,0,0,.078-.3.864.864,0,0,0-.033-.415h0a2.385,2.385,0,0,0-.958-1.562s-.159-.307-.214-.319l.046.529a.528.528,0,0,1,.472.15s-.456-.166-.468-.071c0,.019.034.279.034.279a.865.865,0,0,1,.778.234s-.527-.295-.765-.135l.071.389a.9.9,0,0,1,.851.224s-.558-.283-.831-.141l.108.365a.886.886,0,0,1,.785.182s-.671-.244-.756-.1a2.132,2.132,0,0,0,.177.4s.373-.079.516.122c0,0-.46-.1-.477-.032a1.842,1.842,0,0,0,.431.487,1.159,1.159,0,0,1-.473-.432,1.059,1.059,0,0,0,.067.462s-.2-.122-.123-.553a2.064,2.064,0,0,1-.175-.365,2.3,2.3,0,0,0-.091.7,1.026,1.026,0,0,1,.06-.8l-.115-.365a3.122,3.122,0,0,0-.169.793,1.288,1.288,0,0,1,.146-.888l-.072-.38a3.7,3.7,0,0,0-.216.731,1.523,1.523,0,0,1,.2-.845l-.026-.261s-.128.326-.158.425-.053.1-.053.1a1.5,1.5,0,0,1,.2-.63A3.6,3.6,0,0,0,317.9,159.143Z" transform="translate(-293.455 -144.552)" fill="#6c63ff" opacity="0.1"/>
    <path id="Path_957" data-name="Path 957" d="M570.05,310.928s.573,2.8,1.933,1.827a.45.45,0,0,0,.308-.412s-.108.043-.142-.251a1.666,1.666,0,0,0-.065-.3.641.641,0,0,0-.205-.314h0a1.5,1.5,0,0,0-1.458-.537s-.263-.129-.314-.1l.266.4s.21-.272.449-.244c0,0-.446.218-.412.3.006.017.148.2.148.2s.365-.47.737-.408c0,0-.557.166-.684.479l.226.263s.37-.524.792-.474c0,0-.578.2-.74.526l.248.218s.365-.5.719-.457c0,0-.65.322-.66.5a1.294,1.294,0,0,0,.317.19s.273-.351.472-.3c0,0-.417.275-.4.341a1.232,1.232,0,0,0,.561.063.84.84,0,0,1-.572.011.744.744,0,0,0,.253.327s-.215.052-.339-.358a1.243,1.243,0,0,1-.3-.164,2.106,2.106,0,0,0,.228.642s-.25-.134-.294-.7l-.251-.208a3.156,3.156,0,0,0,.2.779s-.239-.19-.264-.838l-.223-.253a3.946,3.946,0,0,0,.141.767,1.466,1.466,0,0,1-.2-.844l-.135-.193s.036.366.055.469,0,.122,0,.122a1.611,1.611,0,0,1-.11-.668A2.865,2.865,0,0,0,570.05,310.928Z" transform="translate(-522.789 -277.785)" fill="#6c63ff" opacity="0.1"/>
    <path id="Path_958" data-name="Path 958" d="M269.094,209.138a6.037,6.037,0,0,0,.655.843L271.525,212a3.2,3.2,0,0,0,1.039.9,1.3,1.3,0,0,0,1.418-.291l-.03-.013.03-.027a2.434,2.434,0,0,1-.854-.523,1.413,1.413,0,0,1-.376-.853h0v-.05a1.175,1.175,0,0,1,.01-.138,1.929,1.929,0,0,0,1.069-.5l-.031-.015.031-.026a4.03,4.03,0,0,1-1.9-2.848,19.094,19.094,0,0,1-.33-3.908,12.494,12.494,0,0,0-.53-3.855,7.572,7.572,0,0,1-.442-1.352,2.781,2.781,0,0,1-.03-.435,7.565,7.565,0,0,1,.2-1.4q.313-1.534.5-3.108a9.687,9.687,0,0,0,.081-1.127,3.793,3.793,0,0,0-.13-1.083c-.417-1.45-1.869-2.133-2.09-3.655a4.258,4.258,0,0,1-.033-.62v-.341c0-.113,0-.244-.007-.356a6.836,6.836,0,0,0-1.037-2.869,7.158,7.158,0,0,0-2.07-2.689,3.822,3.822,0,0,0-2.425-.481,6.585,6.585,0,0,0-1.2-1.09,4.716,4.716,0,0,0-1.97-1.026,11.726,11.726,0,0,0-2.632.4c-1.2.1-2.377-.487-3.577-.609a2.868,2.868,0,0,0-3.116,2.032,4.973,4.973,0,0,0-.226,1.234h0c-.005.082-.009.162-.012.244v.009c-.009.33,0,.66.021.988v.038c0,.066.009.132.015.2a.243.243,0,0,0,0,.057c0,.061.01.122.016.183l.005.057c.007.077.015.153.023.23a3.175,3.175,0,0,0,.076.465,1,1,0,0,0,.1.244.711.711,0,0,0,.529.329l.16.03c-.016.044-.034.088-.049.133a9.753,9.753,0,0,0-.547,3.261c0,3.833,2.123,7.01,4.9,7.587l.167.278a40.174,40.174,0,0,1,2.917,5.645,14.894,14.894,0,0,0-1.766,6.728l-.349,1.089a10.012,10.012,0,0,0-.732,5.325c-.206,1.021-.441,2.3-.6,3.365-1.213-.359-5.354-1.249-6.333-2.112l-2.871-1.808s-3.737-3.489-5.748-2.324a19.339,19.339,0,0,0-2.427-3.083,42.714,42.714,0,0,1-2.988-4.214l-3.339-5.923a4.068,4.068,0,0,0-.2-1.524c-.394-.7-2.478-2.267-2.895-1.93s-.765-.731-.765-.731l-.032-.023c-.078-.061-.3-.229-.61-.451a14.458,14.458,0,0,1,.027-1.483c.006-.083.015-.166.024-.244,2.274-.11,4.217-2.227,4.754-5.182.015-.077.025-.156.036-.234a.759.759,0,0,0,.841-.327,2.3,2.3,0,0,0,.211-1.619c-.093-.556-.273-1.088-.319-1.656a13.652,13.652,0,0,0-.041-2.315,2.368,2.368,0,0,0-1.016-1.373c-.443-.3-.928-.469-1.381-.738a14.09,14.09,0,0,0-1.282-.8,4.035,4.035,0,0,0-1.823-.252,3.782,3.782,0,0,0-1.194-.469,1.4,1.4,0,0,0-1.3.454c-.273.324-.5.844-.867.861a.936.936,0,0,1-.509-.216,1.167,1.167,0,0,0-1.458-.071,2.322,2.322,0,0,0-.513,1.42,5.963,5.963,0,0,1-.261,1.575,7.054,7.054,0,0,1-.451.8,4.326,4.326,0,0,0-.5,2.371v.024c-.022-.122-.043-.235-.058-.355a2.654,2.654,0,0,0,.009.269,8.976,8.976,0,0,0,.2,1.232l.377,1.766a12.678,12.678,0,0,0,.752,2.6,4.325,4.325,0,0,0,.511.859,2.324,2.324,0,0,0,1.146.888,1.109,1.109,0,0,0,.469.038.531.531,0,0,1-.008.076c-.034-.009-.068-.018-.1-.024a.737.737,0,0,0-.448.016c-.72.342-.939,1.384-1,1.793-.015.1-.019.168-.019.168s.012.061.026.164l-.006.035c-.015.1-.019.168-.019.168s.012.061.026.167l-.188.006-3.14.548a5.4,5.4,0,0,0-1.766.035.6.6,0,0,0-.091.035,46.947,46.947,0,0,0-4.418,3.909,1.216,1.216,0,0,0-.005-.143l-.533.507v.147c-.133.122-.265.251-.393.374-.573.548-1.094,1.043-1.481,1.422-.472.453-.765.739-.765.739s-.173.076-.288.432a5.8,5.8,0,0,0,.335,3.183,31.816,31.816,0,0,1,1.158,5.393,2.321,2.321,0,0,0-.752.244,1.587,1.587,0,0,0-.816.975,2.215,2.215,0,0,0-.006,1.084c.439,2.083,7.712,13.912,7.712,13.912l.091.011a4.787,4.787,0,0,0,1.121,0,1.11,1.11,0,0,0,.8-.385s1.612,2.767,3.98.882a23.084,23.084,0,0,0,.234,5.277,22.145,22.145,0,0,1,.464,4.718l.441.021c-.024.122-.05.244-.078.365a5.711,5.711,0,0,1-.82,2.243c-.534.439-.281,7.977-.259,8.628h0v.039l-.031,3.046v.244a3.222,3.222,0,0,1-.178-.375,5.862,5.862,0,0,0-.874,3.411c-.016,2.315.015,2.393.015,2.393s3.464-.179,4.114.14,6.085-.278,6.085-.278a1.283,1.283,0,0,0-.378-1.237,4.312,4.312,0,0,0,2.523-.9c1.3-1.254-2.621-2.231-2.894-2.429s-1.628-1.8-2.188-2.394a.984.984,0,0,0-.578-.287l.07-2.73c.834-1.256,1.737-8.182,1.737-8.182a3.462,3.462,0,0,0,.477-1.618.749.749,0,0,0,.38-.681h0c.954.043,2.155.033,2.385-.273a5.649,5.649,0,0,0,.347-2.3l-.556-18.815-.036-.072a12.511,12.511,0,0,0,.005-2.6c1.249.476,2.22.8,2.22.8s1.879.463,3.2.853a3.193,3.193,0,0,0-.478,1.072c-1.185,4.508,5.535,4.321,5.535,4.321l3.173,1.961,7.469,3.262c-2.4-.947-5.142-2.06-7.008-2.824a3.916,3.916,0,0,0-.56-.182,4.2,4.2,0,0,0-4.58,2.257c-.013.023-.025.044-.038.066a3.427,3.427,0,0,0-.047,3.181c.285.54.667,1.257,1.115,2.092-.947.383-2.514,1.449-1.561,4.19a12.746,12.746,0,0,0,4.863,5.969s2.316.889,2.917,1.87a11.64,11.64,0,0,0,1.673,1.621,4.891,4.891,0,0,0,1.23,1.391c1.015.447,2.992,2.592,4.383,4.2l-.209,3.845-.014.231-.086-.1a4.029,4.029,0,0,1-2.4,2.277,1.571,1.571,0,0,0-.892.777l-.006.011-.053.1-.04-.04c-.365.686-.534,1.685.842,1.96a11.922,11.922,0,0,0,4.557-.184l2.147-2.653a1.994,1.994,0,0,0,.82.569,63.585,63.585,0,0,1,6.113,2.819c0-.654,3.984-9.07,3.984-9.07,5.378-13.605-.47-23.773-1.117-24.832l-.057-.093-.05-1.131-.011-.26s2.9-1.715,1.79-2.532-1.732-4.74-2.779-6.374c-.82-1.274-.773-4.232-.86-6.753a4.782,4.782,0,0,0,.59,1.706c.006.011.014.019.02.03l-.077-.09C269.056,209.071,269.074,209.1,269.094,209.138Zm-35.76-1.045a14.745,14.745,0,0,0,1.458,1.66c-.518-.337-.921-.623-1.231-.853C233.487,208.63,233.411,208.359,233.333,208.092Zm-11.055-12.749a2.131,2.131,0,0,1-.469.915l-.182-1.051C221.865,195.258,222.087,195.306,222.278,195.343Zm36.43,28.886c.072-.207.147-.411.222-.609a1.8,1.8,0,0,0,.81-.753,20.091,20.091,0,0,1,.352,2.249v.055a4.506,4.506,0,0,1-.1.905c-.084.356-.237.691-.515.731a8.047,8.047,0,0,1-1.538-.479c-.247-.09-.519-.191-.809-.3C257.584,225.987,258.216,225.645,258.708,224.229Zm7.132-25.705a1.492,1.492,0,0,0-.961-.737c-.079-.071-.2-.183-.359-.335a12.047,12.047,0,0,1-3-4.592,3.3,3.3,0,0,0,.571-.279,4.115,4.115,0,0,0,.806-.652c.084-.088.166-.179.244-.274a5.429,5.429,0,0,0,.547-.8c.065-.122.128-.238.182-.365q.134-.281.242-.582a9.006,9.006,0,0,0,.382-1.462c.036-.2.066-.408.091-.615s.048-.415.066-.625c.057-.739.078-1.483.065-2.226,0-.035,0-.072,0-.107v-.039h0a14.43,14.43,0,0,0-.182-2.24c.041.021.082.041.121.066a1.225,1.225,0,0,1,.188.152c-.015-.028-.031-.056-.046-.084a3.029,3.029,0,0,1,.638.942,17.41,17.41,0,0,1,1.079,11.5,8.745,8.745,0,0,0-.328,1.592c-.129,1.963,1.276,3.46,1.8,5.3a12.624,12.624,0,0,1,.337,2.963,24.559,24.559,0,0,0-2.483-6.5Z" transform="translate(-194.772 -160.189)" fill="url(#linear-gradient)"/>
    <path id="Path_959" data-name="Path 959" d="M391.515,662.891a4.589,4.589,0,0,1-.5,2.01s-.889,6.883-1.709,8.132l-.137.7-3.418-.518.684-6.091.638-5.6Z" transform="translate(-355.288 -585.746)" fill="#ffc1c8"/>
    <path id="Path_960" data-name="Path 960" d="M391.515,662.891a4.589,4.589,0,0,1-.5,2.01s-.889,6.883-1.709,8.132l-.137.7-3.418-.518.684-6.091.638-5.6Z" transform="translate(-355.288 -585.746)" opacity="0.03"/>
    <path id="Path_961" data-name="Path 961" d="M339.554,712l1.473-.087-.078,3.1-1.128,1.01-2.031-.594.741-4.142Z" transform="translate(-307.01 -624.632)" fill="#ff748f"/>
    <path id="Path_962" data-name="Path 962" d="M339.554,712l1.473-.087-.078,3.1-1.128,1.01-2.031-.594.741-4.142Z" transform="translate(-307.01 -624.632)" opacity="0.03"/>
    <path id="Path_963" data-name="Path 963" d="M397.159,778.3s1.157-.456,1.705.139,1.883,2.179,2.15,2.378,4.118,1.17,2.847,2.417-4.536.892-4.536.892-2.136-.833-2.195-.872-1.367-.892-1.408-.951.37-4.02.37-4.02Z" transform="translate(-364.348 -688.151)" fill="#5d618c"/>
    <path id="Path_964" data-name="Path 964" d="M397.159,778.3s1.157-.456,1.705.139,1.883,2.179,2.15,2.378,4.118,1.17,2.847,2.417-4.536.892-4.536.892-2.136-.833-2.195-.872-1.367-.892-1.408-.951.37-4.02.37-4.02Z" transform="translate(-364.348 -688.151)" opacity="0.03"/>
    <path id="Path_965" data-name="Path 965" d="M229.389,340.078l-.068,5.662-.155,12.079-.091.106c-2.712,3.137-4.626-.183-4.626-.183a1.083,1.083,0,0,1-.791.383,4.636,4.636,0,0,1-1.1,0l-.091-.011s-7.157-11.765-7.59-13.836a2.231,2.231,0,0,1,.006-1.077,1.576,1.576,0,0,1,.8-.964,2.27,2.27,0,0,1,.74-.244,31.966,31.966,0,0,0-1.139-5.36,5.828,5.828,0,0,1-.329-3.167c.113-.354.283-.43.283-.43s.288-.284.752-.731c.386-.376.893-.869,1.458-1.413l.524-.5a53.739,53.739,0,0,1,4.74-4.264.566.566,0,0,1,.091-.035c.978-.316,4.26.34,4.26.34Z" transform="translate(-199.929 -291.106)" fill="#6c63ff"/>
    <path id="Path_966" data-name="Path 966" d="M306.28,340.1l-.068,5.662c-3.242-1.278-6.256-9.746-6.654-10.414-.34-.58.009-7.038.138-9.233.978-.315,4.26.34,4.26.34Z" transform="translate(-276.82 -291.123)" fill="none"/>
    <path id="Path_967" data-name="Path 967" d="M306.28,340.1l-.068,5.662c-3.242-1.278-6.256-9.746-6.654-10.414-.34-.58.009-7.038.138-9.233.978-.315,4.26.34,4.26.34Z" transform="translate(-276.82 -291.123)" opacity="0.1"/>
    <path id="Path_968" data-name="Path 968" d="M565.554,349.008s-2.529,1.736-2.848,8.558c0,0-.41,3.472-.638,4.081a45.732,45.732,0,0,0-1.185,7.066.753.753,0,0,1-1.071.4c-.843-.3-5.4-1.249-6.426-2.162l-2.826-1.8s-5.515-5.208-6.677-.731,5.446,4.3,5.446,4.3l3.122,1.949,9.457,4.17s1.253.761,2.1-1.675a31.973,31.973,0,0,1,1.914-4.386s1.914-7.188,1.891-8.406,2.051-4.112,2.051-4.112.41-7.675-2.962-7.523Z" transform="translate(-498.883 -311.064)" fill="#ffc1c7"/>
    <path id="Path_969" data-name="Path 969" d="M565.554,349.008s-2.529,1.736-2.848,8.558c0,0-.41,3.472-.638,4.081a45.732,45.732,0,0,0-1.185,7.066.753.753,0,0,1-1.071.4c-.843-.3-5.4-1.249-6.426-2.162l-2.826-1.8s-5.515-5.208-6.677-.731,5.446,4.3,5.446,4.3l3.122,1.949,9.457,4.17s1.253.761,2.1-1.675a31.973,31.973,0,0,1,1.914-4.386s1.914-7.188,1.891-8.406,2.051-4.112,2.051-4.112.41-7.675-2.962-7.523Z" transform="translate(-498.883 -311.064)" opacity="0.03"/>
    <path id="Path_970" data-name="Path 970" d="M467.233,399.64a4.437,4.437,0,0,0,.775.653,42.345,42.345,0,0,0,2.94,4.187c.843.853,3.6,4.112,3.043,5.346s-1.185.959-1.185.959l-4.934-4.568a13.646,13.646,0,0,1-2.085-2.451,22.073,22.073,0,0,1-.787-2.45Z" transform="translate(-427.314 -355.77)" fill="#ffc1c8"/>
    <path id="Path_971" data-name="Path 971" d="M467.233,399.64a4.437,4.437,0,0,0,.775.653,42.345,42.345,0,0,0,2.94,4.187c.843.853,3.6,4.112,3.043,5.346s-1.185.959-1.185.959l-4.934-4.568a13.646,13.646,0,0,1-2.085-2.451,22.073,22.073,0,0,1-.787-2.45Z" transform="translate(-427.314 -355.77)" opacity="0.03"/>
    <path id="Path_972" data-name="Path 972" d="M398.019,313.32l3.543,6.35-3.19,1.66-1.322-5.315Z" transform="translate(-360.868 -275.145)" fill="#dce6f2"/>
    <path id="Path_973" data-name="Path 973" d="M398.019,313.32l3.543,6.35-3.19,1.66-1.322-5.315Z" transform="translate(-360.868 -275.145)" opacity="0.03"/>
    <path id="Path_974" data-name="Path 974" d="M442.212,485.77l.638,1.249.547,18.7a5.665,5.665,0,0,1-.342,2.284c-.387.518-3.555.183-3.555.183s.114-19.066.16-19.431A25.288,25.288,0,0,1,442.212,485.77Z" transform="translate(-404.138 -431.407)" fill="#575988"/>
    <path id="Path_975" data-name="Path 975" d="M442.212,485.77l.638,1.249.547,18.7a5.665,5.665,0,0,1-.342,2.284c-.387.518-3.555.183-3.555.183s.114-19.066.16-19.431A25.288,25.288,0,0,1,442.212,485.77Z" transform="translate(-404.138 -431.407)" opacity="0.1"/>
    <path id="Path_976" data-name="Path 976" d="M367.958,668.816a18.029,18.029,0,0,1-.729,1.978,46.614,46.614,0,0,1-.845,4.935,20.916,20.916,0,0,0-.3,3.763c-.011.429-.016.715-.016.715l-3.484,2.22-.016-2.934v-.039h0c-.022-.647-.273-8.139.254-8.575a5.763,5.763,0,0,0,.8-2.228c.152-.686.248-1.26.248-1.26s3.87-.336,4.193.218A2.012,2.012,0,0,1,367.958,668.816Z" transform="translate(-334.151 -590.814)" fill="#ffc1c8"/>
    <path id="Path_977" data-name="Path 977" d="M379.251,668.772c-1.57-.044-3.537-.133-4.331-.171.152-.686.248-1.26.248-1.26s3.87-.336,4.193.218A1.973,1.973,0,0,1,379.251,668.772Z" transform="translate(-345.445 -590.77)" opacity="0.1"/>
    <path id="Path_978" data-name="Path 978" d="M363.356,451.235a88.557,88.557,0,0,0-.866,12.518c.205,4.9-.159,8.525.3,9.959a22.281,22.281,0,0,1,.456,4.69s6.2.3,6.836.183a.753.753,0,0,0,.615-.761s-.433-5.058-.023-6.642a41,41,0,0,0,.342-6.426l1.732-7.8s.524-3.5-.57-4.934S363.356,451.235,363.356,451.235Z" transform="translate(-334.124 -400.954)" fill="#575988"/>
    <path id="Path_979" data-name="Path 979" d="M583.121,631.237l-.273.536-1.691,3.362-1.436.579-1.071-1.4.052-.925.267-4.8s-6.626-5.21-7.219-6.185-2.871-1.858-2.871-1.858a12.664,12.664,0,0,1-4.785-5.939c-1.3-3.777,2.165-4.355,2.165-4.355l13.012,16.632Z" transform="translate(-517.111 -540.722)" fill="#ffc1c7"/>
    <path id="Path_980" data-name="Path 980" d="M679.5,743.915l-1.691,3.362-1.436.579-1.071-1.4.052-.925,1.179,1.351,2.21-3.442Z" transform="translate(-613.756 -652.866)" opacity="0.1"/>
    <path id="Path_981" data-name="Path 981" d="M697.16,786.647l-4.125,5.147a11.644,11.644,0,0,1-4.489.183c-1.354-.273-1.094-1.266-.737-1.949l.006-.012a1.548,1.548,0,0,1,.879-.772,3.98,3.98,0,0,0,2.359-2.262l1.276,1.462L694.54,785l1.634,1.026Z" transform="translate(-629.555 -694.183)" fill="#575988"/>
    <path id="Path_982" data-name="Path 982" d="M696.585,794.548l-4.125,5.15a11.643,11.643,0,0,1-4.489.183c-1.354-.273-1.185-1.266-.829-1.949a2.511,2.511,0,0,0,1.421.791,16.993,16.993,0,0,0,2.917,0l4.118-4.791Z" transform="translate(-628.979 -702.026)" fill="#fff"/>
    <path id="Path_983" data-name="Path 983" d="M373.865,281.807c-.335.224-.489.916-.551,1.706a19.435,19.435,0,0,0,.065,2.97s-4.557-1.665-4.071-1.991c.28-.186.428-1.543.5-2.661.056-.826.073-1.522.073-1.522S374.776,281.2,373.865,281.807Z" transform="translate(-340.311 -250.978)" fill="#ffc1c8"/>
    <path id="Path_984" data-name="Path 984" d="M717.678,286.178s-5.53,6.984-5.348,4.955a3.187,3.187,0,0,0-.191-1.135,35.523,35.523,0,0,0-3.031-6.074c-.811-1.372-1.458-2.374-1.458-2.374s6.868-7.715,6.321-3.329a6.887,6.887,0,0,0,.3,2.946,11.977,11.977,0,0,0,2.959,4.6C717.5,286.03,717.678,286.178,717.678,286.178Z" transform="translate(-647.847 -247.957)" fill="#ffc1c7"/>
    <path id="Path_985" data-name="Path 985" d="M713.23,279.558c-.1.164-.468.742-.577.894-1.039,1.446-1.178,3.533-2.8,3.533a4.282,4.282,0,0,1-.729-.062c-.811-1.372-1.458-2.374-1.458-2.374s6.866-7.715,6.319-3.329C713.86,279.259,712.941,278.647,713.23,279.558Z" transform="translate(-647.865 -247.957)" opacity="0.1"/>
    <path id="Path_986" data-name="Path 986" d="M680.415,215.573c0,4.218-2.558,7.636-5.713,7.636s-5.712-3.419-5.712-7.636,2.558-7.634,5.713-7.634a5.079,5.079,0,0,1,4.045,2.227A9.069,9.069,0,0,1,680.415,215.573Z" transform="translate(-612.711 -187.424)" fill="#ffc1c7"/>
    <path id="Path_987" data-name="Path 987" d="M762.439,349.731s-5.53,6.984-5.348,4.955a3.185,3.185,0,0,0-.191-1.135l.8-2.519a4.723,4.723,0,0,1,3.537-1.791,3.874,3.874,0,0,1,.708.065l.046.01C762.264,349.584,762.439,349.731,762.439,349.731Z" transform="translate(-692.608 -311.51)" opacity="0.1"/>
    <path id="Path_988" data-name="Path 988" d="M597.114,402.654s-3.919,8.365-3.919,9.015a63,63,0,0,0-6.016-2.8c-1.58-.487-3.069-4.913-3.069-4.913s-4.193-5.28-5.834-6.011c-1.392-.62-8.08-13.23-10.073-17.035a3.43,3.43,0,0,1,.047-3.161l.037-.065a4.124,4.124,0,0,1,4.506-2.244,3.762,3.762,0,0,1,.547.18c2.869,1.185,7.839,3.222,10.345,4.142a8.34,8.34,0,0,0,1.513.476c.273-.038.424-.365.507-.725a4.528,4.528,0,0,0,.1-.9v-.055a20.057,20.057,0,0,0-.361-2.29,7.364,7.364,0,0,0-1.641-3.665,6.729,6.729,0,0,1-1.544-3.591,10.8,10.8,0,0,1,.572-6.4l.843-2.658,1.41-4.447.786-2.478a4.722,4.722,0,0,1,3.537-1.791,3.875,3.875,0,0,1,.708.065,1.711,1.711,0,0,1,1.344.832c.668,1.462,2.188,4.142,2.491,6.822s-.06,7.066.973,8.691,1.641,5.522,2.734,6.335S595.9,376.5,595.9,376.5l.011.257.049,1.124s.02.03.057.091C596.652,379.027,602.4,389.133,597.114,402.654Z" transform="translate(-520.781 -313.266)" fill="#ff6584"/>
    <path id="Path_989" data-name="Path 989" d="M774.245,561.953c-1.2.335-3.817,1.065-4.986,1.385l-.205.056c-.068.018-.145.035-.228.051a28.6,28.6,0,0,1-4.886.046,4.533,4.533,0,0,0,.1-.9v-.055a29.326,29.326,0,0,0,4.79-.8c.147-.04.292-.083.433-.122.2-.063.4-.13.593-.2a12.147,12.147,0,0,1,4.284-.677l.049,1.124S774.2,561.892,774.245,561.953Z" transform="translate(-699.006 -497.245)" fill="#575988"/>
    <path id="Path_990" data-name="Path 990" d="M817.933,567.92v1.723l-.205.056c-.068.018-.145.035-.228.051v-1.7Z" transform="translate(-747.684 -503.549)" fill="#ff6584"/>
    <path id="Path_991" data-name="Path 991" d="M743.842,595s-2.438,7.462-3.919,8.193-5.173,3.32-5.173,3.32a2.642,2.642,0,0,0,4.33-.244C741.29,603.528,744.48,596.218,743.842,595Z" transform="translate(-672.477 -527.33)" opacity="0.1"/>
    <path id="Path_992" data-name="Path 992" d="M861.63,586.77s.228,2.832-.091,3.35S861.63,586.77,861.63,586.77Z" transform="translate(-787.598 -520.103)" opacity="0.1"/>
    <path id="Path_993" data-name="Path 993" d="M829.627,602s1.23,17.238-4.876,17.33C824.75,619.332,830.47,611.746,829.627,602Z" transform="translate(-754.273 -533.477)" opacity="0.1"/>
    <path id="Path_994" data-name="Path 994" d="M889.8,636s1.755,9.046-.547,10.081A30.286,30.286,0,0,0,889.8,636Z" transform="translate(-812.894 -563.335)" opacity="0.1"/>
    <path id="Path_995" data-name="Path 995" d="M736.82,617c-.114,0-4.74,1.066-3.737,1.919S736.82,617,736.82,617Z" transform="translate(-670.832 -546.65)" opacity="0.1"/>
    <path id="Path_996" data-name="Path 996" d="M810.5,516.77s3.783,4.477,3.053,4.964" transform="translate(-741.322 -458.631)" opacity="0.1"/>
    <path id="Path_997" data-name="Path 997" d="M807,528.52s2.188,3.594,1.937,3.807" transform="translate(-738.141 -468.949)" opacity="0.1"/>
    <path id="Path_998" data-name="Path 998" d="M858.25,524s1,1.675.843,2.041" transform="translate(-784.72 -464.98)" opacity="0.1"/>
    <path id="Path_999" data-name="Path 999" d="M869.25,516.77s1.436,1.49,1.117,2.071" transform="translate(-794.717 -458.631)" opacity="0.1"/>
    <path id="Path_1000" data-name="Path 1000" d="M744.26,367.77a5.07,5.07,0,0,1,4.466,5.513c-.205,5.025-3.692,6.3-3.692,6.3l-4.535-1.736S742.528,368.1,744.26,367.77Z" transform="translate(-677.703 -327.783)" fill="#ffc1c7"/>
    <path id="Path_1001" data-name="Path 1001" d="M622.741,550.05c2.869,1.185,7.839,3.222,10.345,4.142a1.028,1.028,0,0,1-1.069.079l-9.457-4.17-.37-.232A3.759,3.759,0,0,1,622.741,550.05Z" transform="translate(-570.177 -487.698)" opacity="0.1"/>
    <path id="Path_1002" data-name="Path 1002" d="M733.164,381.21a5.317,5.317,0,0,0-.82,2.178,16.517,16.517,0,0,1-.436,2.521,50.738,50.738,0,0,1-2.643,8.372,7.364,7.364,0,0,0-1.641-3.665,6.728,6.728,0,0,1-1.544-3.591c.221-1.155.432-2.126.519-2.357.228-.609.638-4.081.638-4.081a24.072,24.072,0,0,1,.258-2.618,13.148,13.148,0,0,1,1.41-4.447,4.589,4.589,0,0,1,1.185-1.494l1.344-.274c1.549-.069,2.3,1.506,2.657,3.232A9.207,9.207,0,0,1,733.164,381.21Z" transform="translate(-664.597 -331.279)" opacity="0.1"/>
    <path id="Path_1003" data-name="Path 1003" d="M549.554,368.06s-2.529,1.736-2.848,8.558c0,0-.41,3.472-.638,4.081a45.739,45.739,0,0,0-1.185,7.066.753.753,0,0,1-1.071.4c-.843-.3-5.4-1.249-6.426-2.162l-2.826-1.8s-5.515-5.208-6.677-.731,5.446,4.3,5.446,4.3l3.122,1.949,9.457,4.17s1.253.761,2.1-1.675c.211-.609.436-1.188.655-1.714a50.928,50.928,0,0,0,2.717-8.55,15.935,15.935,0,0,0,.436-2.521,5.46,5.46,0,0,1,.82-2.178,9.155,9.155,0,0,0,.921-6.225c-.36-1.726-1.111-3.3-2.657-3.231Z" transform="translate(-484.341 -327.801)" fill="#ffc1c7"/>
    <path id="Path_1004" data-name="Path 1004" d="M379.253,281.772c-.335.224-.49.916-.551,1.706h-.178a4.358,4.358,0,0,1-3.324-1.686c.057-.826.073-1.522.073-1.522S380.165,281.163,379.253,281.772Z" transform="translate(-345.699 -250.942)" opacity="0.1"/>
    <path id="Path_1005" data-name="Path 1005" d="M366.7,201.3c0,3.7-2.244,6.7-5.013,6.7s-5.013-3-5.013-6.7,2.245-6.7,5.013-6.7S366.69,197.6,366.7,201.3Z" transform="translate(-328.858 -175.709)" fill="#ffc1c8"/>
    <path id="Path_1006" data-name="Path 1006" d="M354.138,323.759s-2.62,1.4-3.441,1.888-5.514-.64-5.514-.64-2.438-1.645-2.233-3.289-1.96-7.033-1.96-7.033-.068-4.782.889-5.7.592-2.832.592-2.832,0-.063.019-.167c.059-.407.273-1.442.983-1.782a.713.713,0,0,1,.44-.016,9.941,9.941,0,0,1,2.724,1.44c.766.518,1.4,1,1.544,1.111l.031.023s.342,1.066.752.731,2.461,1.218,2.848,1.919.114,3.99.046,4.812a16.494,16.494,0,0,0,.889,4.657C353.249,320.285,354.138,323.759,354.138,323.759Z" transform="translate(-314.606 -271.927)" opacity="0.1"/>
    <path id="Path_1007" data-name="Path 1007" d="M354.138,320.759s-2.62,1.4-3.441,1.888-5.514-.64-5.514-.64-2.438-1.645-2.233-3.289-1.96-7.033-1.96-7.033-.068-4.782.889-5.7.592-2.832.592-2.832,0-.063.019-.167c.059-.407.273-1.442.983-1.782a.714.714,0,0,1,.44-.016,9.94,9.94,0,0,1,2.724,1.44c.766.518,1.4,1,1.544,1.111l.031.023s.342,1.066.752.731,2.461,1.218,2.848,1.919.114,3.99.046,4.812a16.494,16.494,0,0,0,.889,4.657C353.249,317.285,354.138,320.759,354.138,320.759Z" transform="translate(-314.606 -269.292)" fill="#dce6f2"/>
    <path id="Path_1008" data-name="Path 1008" d="M366.113,423.161A53.883,53.883,0,0,1,363.5,428.3l.137,1.706s3.206-.894,3.4-2.092a42.589,42.589,0,0,0,.091-4.812Z" transform="translate(-335.066 -376.372)" fill="#575988"/>
    <path id="Path_1009" data-name="Path 1009" d="M366.113,423.161A53.883,53.883,0,0,1,363.5,428.3l.137,1.706s3.206-.894,3.4-2.092a42.589,42.589,0,0,0,.091-4.812Z" transform="translate(-335.066 -376.372)" opacity="0.2"/>
    <path id="Path_1010" data-name="Path 1010" d="M426.88,372.64a8.048,8.048,0,0,0,1.025,2.757C428.533,376.1,426.88,372.64,426.88,372.64Z" transform="translate(-392.669 -332.059)" opacity="0.1"/>
    <path id="Path_1011" data-name="Path 1011" d="M384,407.7c.057.138,1.983,3.64,4.011,4.934a41.137,41.137,0,0,0,6.552,2.818,41.547,41.547,0,0,1,4.295,1.263c.626.35,1.425-1.218-2.507-3.456s-4.694-3.228-4.694-3.228-3.418-2.226-3.965-3.322S384,407.7,384,407.7Z" transform="translate(-353.697 -361.695)" fill="#ffc1c8"/>
    <path id="Path_1012" data-name="Path 1012" d="M399.75,545.1c.068-.061,1.709-2.406,1.914-1.4S399.75,545.1,399.75,545.1Z" transform="translate(-368.012 -482.058)" opacity="0.1"/>
    <path id="Path_1013" data-name="Path 1013" d="M401.162,519c-.023.091-.251,2.68-.911,2.985" transform="translate(-368.466 -460.589)" opacity="0.1"/>
    <path id="Path_1014" data-name="Path 1014" d="M404.344,524.77s-.592,2.772-1.344,2.952" transform="translate(-370.965 -465.656)" opacity="0.1"/>
    <path id="Path_1015" data-name="Path 1015" d="M384.75,587.072s1,.03,1.139-.822" transform="translate(-354.379 -519.646)" opacity="0.1"/>
    <path id="Path_1016" data-name="Path 1016" d="M399.75,638.52c.137.031,2.279,1.858,1.732,2.223S399.75,638.52,399.75,638.52Z" transform="translate(-368.012 -565.548)" opacity="0.1"/>
    <path id="Path_1017" data-name="Path 1017" d="M366.835,765.14v.281c-.011.429-.016.715-.016.715l-3.484,2.22-.015-2.934v-.039h0v-.2l1.395.06Z" transform="translate(-334.902 -676.743)" opacity="0.1"/>
    <path id="Path_1018" data-name="Path 1018" d="M315.6,731.583l-2.906,1.486-1.3-1.031.014-1.411.03-3.029,1.395.06,2.12-.1v2.121Z" transform="translate(-283.016 -638.92)" fill="#ff748f"/>
    <path id="Path_1019" data-name="Path 1019" d="M367.02,784.886l-2.906,1.486-1.3-1.031.014-1.411a2.014,2.014,0,0,0,1.6,1.109,11.926,11.926,0,0,1,1.645-2.2.3.3,0,0,1,.3-.054v.2Z" transform="translate(-334.439 -692.223)" opacity="0.1"/>
    <path id="Path_1020" data-name="Path 1020" d="M354.206,787.02a2.037,2.037,0,0,1-1.779-1.486,5.868,5.868,0,0,0-.86,3.389c-.016,2.3.015,2.378.015,2.378s3.41-.178,4.048.139,5.99-.278,5.99-.278.355-1.249-1.261-1.685-2.95-2.735-3-2.834-.89-2.315-1.512-1.827A11.692,11.692,0,0,0,354.206,787.02Z" transform="translate(-324.216 -693.96)" fill="#5d618c"/>
    <path id="Path_1021" data-name="Path 1021" d="M411.66,188.339l-.34-.062.212-.007Z" transform="translate(-378.527 -170.15)" opacity="0.1"/>
    <path id="Path_1022" data-name="Path 1022" d="M366.672,201.35a8.883,8.883,0,0,1-.134,1.544.712.712,0,0,1-.216-.122c-.1-.084-.2-.2-.31-.186a.337.337,0,0,0-.182.112c-.54.528-.941,1.395-1.6,1.563a1.863,1.863,0,0,0,.026-.8,1.056,1.056,0,0,1-1.08.463.916.916,0,0,0,.015-.479,9.52,9.52,0,0,1-1.439.893c-.017-.122-.034-.234-.051-.351-.7.456-.643,2-1.342,2.457-.416.272-1,.077-1.29.566-.011.019-.021.039-.031.06-2.062-1.686-2.93-5.1-2.065-8.113s3.216-4.779,5.593-4.191,4.1,3.357,4.1,6.587Z" transform="translate(-328.834 -175.759)" opacity="0.1"/>
    <path id="Path_1023" data-name="Path 1023" d="M344.395,182.831a4.078,4.078,0,0,0-1.3-.536,1.368,1.368,0,0,0-1.283.452c-.273.322-.488.838-.852.853a.918.918,0,0,1-.5-.214,1.144,1.144,0,0,0-1.436-.071,2.31,2.31,0,0,0-.5,1.413,5.841,5.841,0,0,1-.256,1.565,7.187,7.187,0,0,1-.444.8,4.328,4.328,0,0,0-.5,2.356,8.867,8.867,0,0,0,.2,1.224l.372,1.755a12.684,12.684,0,0,0,.74,2.589,2.916,2.916,0,0,0,1.586,1.68.912.912,0,0,0,1.127-.445c.058-.122.1-.252.16-.365.283-.487.874-.294,1.29-.565.7-.456.643-2,1.342-2.457l.052.35a9.652,9.652,0,0,0,1.438-.892.926.926,0,0,1-.015.479,1.059,1.059,0,0,0,1.079-.463,1.864,1.864,0,0,1-.026.8c.656-.169,1.057-1.037,1.6-1.564a.342.342,0,0,1,.182-.111c.116-.013.212.1.31.185a.719.719,0,0,0,1.079-.184,2.3,2.3,0,0,0,.208-1.611c-.092-.553-.273-1.081-.313-1.645a13.9,13.9,0,0,0-.041-2.3,2.349,2.349,0,0,0-1-1.364c-.438-.295-.911-.467-1.359-.731a13.733,13.733,0,0,0-1.262-.8,4.343,4.343,0,0,0-2.005-.244" transform="translate(-311.262 -164.887)" fill="#794f6a"/>
    <path id="Path_1024" data-name="Path 1024" d="M329.659,328.08s.729-6.558-5.514-6.234l-3.145.559s3,.721,3.722.827l.077.015C325.466,323.41,327.776,323.207,329.659,328.08Z" transform="translate(-296.44 -287.443)" fill="#6c63ff"/>
    <path id="Path_1025" data-name="Path 1025" d="M372.25,577.884v-.076C374.81,574.85,372.25,577.884,372.25,577.884Z" transform="translate(-343.018 -511.095)" opacity="0.1"/>
    <path id="Path_1026" data-name="Path 1026" d="M224.343,475.155a4.633,4.633,0,0,1-1.1,0l-7.67-14.921a1.576,1.576,0,0,1,.8-.964Z" transform="translate(-200.619 -408.136)" fill="#575988"/>
    <path id="Path_1027" data-name="Path 1027" d="M220.114,387.581l-.365.579s-2.765-6.14-3.36-9.259c.113-.355.283-.43.283-.43s.288-.284.752-.731A39.456,39.456,0,0,0,220.114,387.581Z" transform="translate(-201.365 -336.538)" fill="#575988"/>
    <path id="Path_1028" data-name="Path 1028" d="M250.859,368.136l-.729.548c-1.991-3.114-2.16-8.345-2.142-10.43l.525-.5C248.584,360.487,250.859,368.136,250.859,368.136Z" transform="translate(-230.082 -318.983)" fill="#575988"/>
    <path id="Path_1029" data-name="Path 1029" d="M297.48,438.52c-.023.4-.866,4.416.365,5.086S297.48,438.52,297.48,438.52Z" transform="translate(-274.788 -389.913)" opacity="0.1"/>
    <path id="Path_1030" data-name="Path 1030" d="M329.5,481.878c.046.213.456,7.157,1.344,6.609s.41-8.467.41-8.467Z" transform="translate(-304.165 -426.358)" opacity="0.1"/>
    <path id="Path_1031" data-name="Path 1031" d="M685.8,215.5a9.11,9.11,0,0,1-1.593,5.287,2.509,2.509,0,0,1-1.267.029,1.11,1.11,0,0,1-.592-.318,2.18,2.18,0,0,1-.384-.742,18.029,18.029,0,0,0-.97-2.88c-.467-.819-1.414-1.178-1.864-.339-.245.456-.286,1.156-.613,1.472-.393.38-.911-.067-1.217-.609-.9-1.584-.593-4.7-2.314-5.135l-.069-.016c1.137-3.24,3.8-4.99,6.417-4.209s4.47,3.881,4.467,7.46Z" transform="translate(-618.1 -187.348)" opacity="0.1"/>
    <path id="Path_1032" data-name="Path 1032" d="M666.229,197.419c-.279-.072-.6-.062-.789-.384a1.838,1.838,0,0,1-.169-.7,7.966,7.966,0,0,1,.149-3.216,2.824,2.824,0,0,1,3.066-2.021c1.18.119,2.339.708,3.519.609a11.426,11.426,0,0,1,2.589-.4,4.6,4.6,0,0,1,1.938,1.021,5.14,5.14,0,0,1,1.573,1.653,9.056,9.056,0,0,1,.729,4.054,14.4,14.4,0,0,1-.6,4.9c-.764,2.143-2.467,3.418-4.055,3.035a1.11,1.11,0,0,1-.592-.318,2.193,2.193,0,0,1-.383-.742,18.143,18.143,0,0,0-.971-2.881c-.467-.82-1.414-1.177-1.864-.337-.245.454-.286,1.156-.613,1.472-.393.379-.911-.068-1.217-.609C667.641,200.966,667.95,197.855,666.229,197.419Z" transform="translate(-609.249 -172.617)" fill="#945b79"/>
    <path id="Path_1033" data-name="Path 1033" d="M798.559,210.374a7.128,7.128,0,0,1,2.037,2.673,6.833,6.833,0,0,1,1.021,2.852c.025.436-.024.88.038,1.308.218,1.514,1.641,2.193,2.056,3.635a5.606,5.606,0,0,1,.047,2.155q-.183,1.56-.491,3.086a5.409,5.409,0,0,0-.169,1.861,6.839,6.839,0,0,0,.434,1.34,12.542,12.542,0,0,1,.522,3.831,19.189,19.189,0,0,0,.324,3.885,4.008,4.008,0,0,0,1.869,2.83,1.879,1.879,0,0,1-1.052.5,1.363,1.363,0,0,0,.365,1.082,2.422,2.422,0,0,0,.84.52,1.265,1.265,0,0,1-1.4.288,3.22,3.22,0,0,1-1.022-.894l-1.747-2.009a6,6,0,0,1-.644-.838c-1.13-1.877-.456-4.722-1.087-6.977-.514-1.833-1.9-3.322-1.769-5.273a8.766,8.766,0,0,1,.323-1.584A17.468,17.468,0,0,0,798,213.216a2.5,2.5,0,0,0-.764-1.044c-.506-.323-1.229-.184-1.516-.828a4.171,4.171,0,0,1-.2-1.319A3.872,3.872,0,0,1,798.559,210.374Z" transform="translate(-727.708 -189.114)" fill="#945b79"/>
    <path id="Path_1034" data-name="Path 1034" d="M341.079,356.14c.427-3.747,3.931-5.1,5.792-2.237a10.542,10.542,0,0,1,1.284,2.651c.911,3.076.98,3.35.98,3.35s-5.628,1.462-5.583,2.558L341,357.011S341.019,356.67,341.079,356.14Z" transform="translate(-314.617 -314.253)" opacity="0.1"/>
    <path id="Path_1035" data-name="Path 1035" d="M341.079,353.14c.427-3.747,3.931-5.1,5.792-2.237a10.542,10.542,0,0,1,1.284,2.651c.911,3.076.98,3.35.98,3.35s-5.628,1.462-5.583,2.558L341,354.011S341.019,353.67,341.079,353.14Z" transform="translate(-314.617 -311.619)" fill="#dce6f2"/>
    <path id="Path_1036" data-name="Path 1036" d="M359.25,340.89c.068.152,2.757,4.538,4.17,5.163S359.25,340.89,359.25,340.89Z" transform="translate(-331.203 -304.177)" opacity="0.1"/>
    <path id="Path_1037" data-name="Path 1037" d="M232.5,457.27s7.11,11.208,8.021,15.746" transform="translate(-216.006 -406.379)" opacity="0.1"/>
    <path id="Path_1038" data-name="Path 1038" d="M235.5,372.27s1.55,10.721,4.557,15.228a84.577,84.577,0,0,1,6.107,12.183" transform="translate(-218.733 -331.734)" fill="none" stroke="#000" stroke-miterlimit="10" stroke-width="2" opacity="0.1"/>
    <g id="Group_25" data-name="Group 25" transform="translate(26.001 21.123)" opacity="0.1">
      <path id="Path_1039" data-name="Path 1039" d="M442.792,244.24a1.776,1.776,0,0,1-.259.975.719.719,0,0,1-1.079.184c-.1-.083-.194-.2-.31-.185a.343.343,0,0,0-.182.111c-.513.5-.9,1.311-1.5,1.534a1.857,1.857,0,0,1-.047.64c.656-.169,1.057-1.037,1.6-1.564a.343.343,0,0,1,.182-.111c.116-.013.212.1.31.185a.719.719,0,0,0,1.079-.184A2.3,2.3,0,0,0,442.792,244.24Z" transform="translate(-430.058 -240.424)"/>
      <path id="Path_1040" data-name="Path 1040" d="M472.411,214.45c.007.1.02.2.035.3a10.277,10.277,0,0,0,0-1.827C472.448,213.417,472.373,213.943,472.411,214.45Z" transform="translate(-460.041 -212.92)"/>
      <path id="Path_1041" data-name="Path 1041" d="M346.144,241.029a1.059,1.059,0,0,1-1.079.463.926.926,0,0,0,.015-.479,9.652,9.652,0,0,1-1.438.892l-.052-.35c-.7.456-.644,2-1.342,2.457-.416.272-1,.076-1.29.565-.064.111-.1.244-.16.365a.911.911,0,0,1-1.127.445,2.908,2.908,0,0,1-1.586-1.68,12.744,12.744,0,0,1-.74-2.589l-.372-1.755c-.061-.292-.123-.585-.163-.883a2.388,2.388,0,0,0,.01.268,8.866,8.866,0,0,0,.2,1.224l.372,1.755a12.687,12.687,0,0,0,.74,2.589,2.916,2.916,0,0,0,1.586,1.68.912.912,0,0,0,1.127-.445c.058-.122.1-.252.16-.365.283-.487.874-.294,1.29-.565.7-.456.644-2,1.342-2.457l.052.35a9.658,9.658,0,0,0,1.436-.892.926.926,0,0,1-.015.479,1.043,1.043,0,0,0,1.037-.412A1.87,1.87,0,0,0,346.144,241.029Z" transform="translate(-336.81 -235.366)"/>
    </g>
    <path id="Path_1042" data-name="Path 1042" d="M363.189,306.744c-.49.378-1.63,1.218-1.86,1.075-.246-.152-2.931-1.408-3.828-1.827.059-.407.273-1.442.984-1.782a.713.713,0,0,1,.44-.016l2.724,1.44C362.41,306.15,363.044,306.632,363.189,306.744Z" transform="translate(-329.613 -271.927)" opacity="0.1"/>
    <path id="Path_1043" data-name="Path 1043" d="M363.189,303.744c-.49.378-1.63,1.218-1.86,1.074-.246-.152-2.931-1.408-3.828-1.827.059-.407.273-1.442.984-1.782a.713.713,0,0,1,.44-.016l2.724,1.44C362.41,303.15,363.044,303.632,363.189,303.744Z" transform="translate(-329.613 -269.292)" fill="#dce6f2"/>
    <path id="Path_1044" data-name="Path 1044" d="M678.92,221.4a12.641,12.641,0,0,1-.593,3.946c-.764,2.143-2.467,3.418-4.055,3.035a1.11,1.11,0,0,1-.593-.318,2.194,2.194,0,0,1-.383-.742,18.137,18.137,0,0,0-.971-2.881c-.467-.82-1.414-1.177-1.864-.337-.245.454-.286,1.156-.613,1.472-.393.379-.911-.068-1.217-.609-.9-1.584-.593-4.7-2.314-5.135-.279-.072-.6-.062-.789-.384a1.84,1.84,0,0,1-.169-.7c-.031-.294-.057-.593-.073-.894a11.836,11.836,0,0,0,.073,1.991,1.84,1.84,0,0,0,.169.7c.187.322.51.312.789.384,1.721.436,1.412,3.548,2.314,5.135.3.535.82.982,1.217.609.327-.316.365-1.017.613-1.472.45-.839,1.4-.481,1.864.337a18,18,0,0,1,.971,2.881,2.194,2.194,0,0,0,.383.742,1.11,1.11,0,0,0,.593.318c1.588.384,3.291-.892,4.055-3.035a14.4,14.4,0,0,0,.6-4.9C678.92,221.494,678.92,221.445,678.92,221.4Z" transform="translate(-609.332 -196.127)" opacity="0.1"/>
    <g id="Group_26" data-name="Group 26" transform="translate(67.928 22.044)" opacity="0.1">
      <path id="Path_1045" data-name="Path 1045" d="M873.976,289.617a5.606,5.606,0,0,1,.047,2.155q-.183,1.558-.491,3.083a5.409,5.409,0,0,0-.169,1.862,6.844,6.844,0,0,0,.434,1.34,12.54,12.54,0,0,1,.522,3.831,19.185,19.185,0,0,0,.324,3.885,5.206,5.206,0,0,0,1.046,2.205,5.938,5.938,0,0,1-.591-1.55,19.115,19.115,0,0,1-.324-3.885,12.5,12.5,0,0,0-.522-3.83,7.071,7.071,0,0,1-.434-1.34,5.483,5.483,0,0,1,.169-1.863q.309-1.527.491-3.092a5.616,5.616,0,0,0-.047-2.156,4.088,4.088,0,0,0-.781-1.392A3.175,3.175,0,0,1,873.976,289.617Z" transform="translate(-866.356 -280.538)"/>
      <path id="Path_1046" data-name="Path 1046" d="M898.074,452.843a2.251,2.251,0,0,1-.678-.473,1.812,1.812,0,0,1-.829.322,1.363,1.363,0,0,0,.365,1.082,1.331,1.331,0,0,0,.155.143,1.272,1.272,0,0,1-.061-.574A1.9,1.9,0,0,0,898.074,452.843Z" transform="translate(-887.463 -424.12)"/>
      <path id="Path_1047" data-name="Path 1047" d="M797.928,220.9c-.347-.222-.8-.227-1.138-.415a1.5,1.5,0,0,0,.077.244c.287.643,1.01.5,1.516.828a1.246,1.246,0,0,1,.182.15A2.1,2.1,0,0,0,797.928,220.9Z" transform="translate(-796.79 -220.48)"/>
      <path id="Path_1048" data-name="Path 1048" d="M865.586,447.492a1.217,1.217,0,0,1-1.1.069,3.219,3.219,0,0,1-1.022-.894l-1.747-2.009q-.125-.143-.245-.289c.018.033.036.067.057.1a5.926,5.926,0,0,0,.644.838l1.747,2.01a3.235,3.235,0,0,0,1.022.894,1.265,1.265,0,0,0,1.4-.289A2.632,2.632,0,0,1,865.586,447.492Z" transform="translate(-855.574 -417.095)"/>
      <path id="Path_1049" data-name="Path 1049" d="M839.585,222.666a6.834,6.834,0,0,1,1.021,2.852c.025.436-.024.88.038,1.308a3.491,3.491,0,0,0,.834,1.692,2.8,2.8,0,0,1-.378-1.042c-.062-.43-.014-.874-.038-1.31a6.786,6.786,0,0,0-1.021-2.851,12.948,12.948,0,0,0-1.12-1.807C839.154,221.88,839.372,222.275,839.585,222.666Z" transform="translate(-835.08 -221.385)"/>
    </g>
    <path id="Path_1050" data-name="Path 1050" d="M801.406,210.27s-.547,1.218,1,2.233l.091-.325Z" transform="translate(-732.972 -189.47)" opacity="0.1"/>
    <path id="Path_1051" data-name="Path 1051" d="M800.406,210.27s-.547,1.218,1,2.233l.091-.325Z" transform="translate(-732.064 -189.47)" fill="#ff6584"/>
    <path id="Path_1052" data-name="Path 1052" d="M1024.3,776.26a2.305,2.305,0,0,1-.231,2.193c-.732,1.317-1.335,2.437-1.094,3.261,0,0,1.1-2.455,2.005-2.489S1025.294,777.737,1024.3,776.26Z" transform="translate(-934.386 -686.508)" fill="#6c63ff"/>
    <path id="Path_1053" data-name="Path 1053" d="M1024.6,776.26a1.284,1.284,0,0,1,.1.274c.877,1.378,1.344,2.663.5,2.695-.785.03-1.726,1.907-1.952,2.38.007.037.016.072.026.108,0,0,1.1-2.455,2.005-2.489S1025.588,777.737,1024.6,776.26Z" transform="translate(-934.68 -686.508)" opacity="0.1"/>
    <path id="Path_1054" data-name="Path 1054" d="M1047.116,783.982a.282.282,0,1,1-.116,0c0-.314.032-.163.064-.163S1047.116,783.673,1047.116,783.982Z" transform="translate(-956.266 -693.114)" fill="#ffd037"/>
    <path id="Path_1055" data-name="Path 1055" d="M1047.834,786.913c-.2.147-.379.236-.394.2s.136-.188.338-.335.123-.04.139,0S1048.037,786.766,1047.834,786.913Z" transform="translate(-956.665 -695.677)" fill="#ffd037"/>
    <path id="Path_1056" data-name="Path 1056" d="M997.789,776.26a2.305,2.305,0,0,0,.231,2.193c.732,1.317,1.335,2.437,1.094,3.261,0,0-1.1-2.455-2.005-2.489S996.8,777.737,997.789,776.26Z" transform="translate(-910.518 -686.508)" fill="#6c63ff"/>
    <path id="Path_1057" data-name="Path 1057" d="M997.769,776.26a1.284,1.284,0,0,0-.1.274c-.877,1.378-1.344,2.663-.5,2.695.785.03,1.726,1.907,1.952,2.38q-.011.055-.027.108s-1.1-2.455-2.005-2.489S996.783,777.737,997.769,776.26Z" transform="translate(-910.498 -686.508)" opacity="0.1"/>
    <path id="Path_1058" data-name="Path 1058" d="M998.82,783.982a.282.282,0,1,0,.116,0c0-.314-.032-.163-.064-.163S998.82,783.673,998.82,783.982Z" transform="translate(-912.477 -693.114)" fill="#ffd037"/>
    <path id="Path_1059" data-name="Path 1059" d="M994.09,786.913c.2.147.378.236.394.2s-.136-.188-.338-.335-.123-.04-.139,0S993.888,786.766,994.09,786.913Z" transform="translate(-908.066 -695.677)" fill="#ffd037"/>
    <path id="Path_1060" data-name="Path 1060" d="M1000.57,812.816a4.017,4.017,0,0,0,1.823-.459c.423-.4,2.154-.882,2.259-.244s2.1,3.2.523,3.22a10.278,10.278,0,0,1-4.094-.671C1000.66,814.32,1000.57,812.816,1000.57,812.816Z" transform="translate(-914.068 -717.721)" fill="#a8a8a8"/>
    <path id="Path_1061" data-name="Path 1061" d="M1005.2,822.411a10.277,10.277,0,0,1-4.094-.671c-.321-.262-.448-1.2-.491-1.63h-.047s.091,1.509.51,1.853a10.25,10.25,0,0,0,4.094.671c.456,0,.613-.222.605-.543C1005.714,822.289,1005.541,822.411,1005.2,822.411Z" transform="translate(-914.068 -725.016)" opacity="0.2"/>
    <path id="Path_1062" data-name="Path 1062" d="M280.3,786.217a1.521,1.521,0,0,0,.35-.7.715.715,0,0,0-.244-.719c-.224-.115-.464.094-.645.3s-.39.45-.628.4a1.553,1.553,0,0,0,.3-1.2.594.594,0,0,0-.082-.244c-.124-.178-.35-.1-.5.039a2.96,2.96,0,0,0-.608,2.08,5.12,5.12,0,0,1-.009-.853,1.031,1.031,0,0,0-.241-.758.59.59,0,0,0-.365-.122.635.635,0,0,0-.6.227,1,1,0,0,0,.024.975,2.647,2.647,0,0,0,.616.66,1.644,1.644,0,0,1,.441.562.7.7,0,0,1,.033.1h1.33A3.889,3.889,0,0,0,280.3,786.217Z" transform="translate(-256.364 -693.27)" fill="#6c63ff"/>
    <path id="Path_1063" data-name="Path 1063" d="M192.652,684.532s-1.276-5.811.24-10.09a12.011,12.011,0,0,0,.556-5.759,19.577,19.577,0,0,0-.611-2.7" transform="translate(-179.334 -589.663)" fill="none" stroke="#535461" stroke-miterlimit="10" stroke-width="2"/>
    <path id="Path_1064" data-name="Path 1064" d="M190.831,634.49a12.026,12.026,0,0,1-.965,2.778,12.113,12.113,0,0,1-.965-2.778c0-.713.432-1.29.965-1.29S190.831,633.778,190.831,634.49Z" transform="translate(-176.38 -560.876)" fill="#6c63ff"/>
    <path id="Path_1065" data-name="Path 1065" d="M208.24,661.82a7.693,7.693,0,0,1-1.94,1.631,13.439,13.439,0,0,1,.319-3.032.833.833,0,0,1,1.335-.383,1.57,1.57,0,0,1,.286,1.784Z" transform="translate(-192.194 -584.261)" fill="#6c63ff"/>
    <path id="Path_1066" data-name="Path 1066" d="M203.971,713.916a5.758,5.758,0,0,1-2.291.1,10.42,10.42,0,0,1,1.422-2.4c.476-.321,1.056-.065,1.3.571a1.518,1.518,0,0,1-.428,1.733Z" transform="translate(-187.995 -629.614)" fill="#6c63ff"/>
    <path id="Path_1067" data-name="Path 1067" d="M194.415,756.162a5.959,5.959,0,0,1-2.245.609,11.818,11.818,0,0,1,1.094-2.689.778.778,0,0,1,.982-.194,1.312,1.312,0,0,1,.591,1.066,1.48,1.48,0,0,1-.425,1.2Z" transform="translate(-179.352 -666.775)" fill="#6c63ff"/>
    <path id="Path_1068" data-name="Path 1068" d="M180.953,674.554a6.443,6.443,0,0,0,2.163,1.011,12.508,12.508,0,0,0-.82-2.862.812.812,0,0,0-.946-.342,1.189,1.189,0,0,0-.682.939,1.584,1.584,0,0,0,.283,1.253Z" transform="translate(-168.874 -595.227)" fill="#6c63ff"/>
    <path id="Path_1069" data-name="Path 1069" d="M167.71,722.065a5.763,5.763,0,0,0,2.291.1,10.359,10.359,0,0,0-1.422-2.4c-.476-.321-1.056-.065-1.3.571a1.518,1.518,0,0,0,.427,1.732Z" transform="translate(-156.64 -636.772)" fill="#6c63ff"/>
    <path id="Path_1070" data-name="Path 1070" d="M165.253,772.177a5.982,5.982,0,0,0,2.245.609,11.823,11.823,0,0,0-1.094-2.69.819.819,0,0,0-1.311.305,1.6,1.6,0,0,0,.164,1.766Z" transform="translate(-154.571 -680.905)" fill="#6c63ff"/>
    <path id="Path_1071" data-name="Path 1071" d="M190.831,634.49a12.026,12.026,0,0,1-.965,2.778,12.113,12.113,0,0,1-.965-2.778c0-.713.432-1.29.965-1.29S190.831,633.778,190.831,634.49Z" transform="translate(-176.38 -560.876)" fill="#6c63ff"/>
    <path id="Path_1072" data-name="Path 1072" d="M208.24,661.82a7.693,7.693,0,0,1-1.94,1.631,13.439,13.439,0,0,1,.319-3.032.833.833,0,0,1,1.335-.383,1.57,1.57,0,0,1,.286,1.784Z" transform="translate(-192.194 -584.261)" fill="#6c63ff"/>
    <path id="Path_1073" data-name="Path 1073" d="M203.971,713.916a5.758,5.758,0,0,1-2.291.1,10.42,10.42,0,0,1,1.422-2.4c.476-.321,1.056-.065,1.3.571a1.518,1.518,0,0,1-.428,1.733Z" transform="translate(-187.995 -629.614)" fill="#6c63ff"/>
    <path id="Path_1074" data-name="Path 1074" d="M194.415,756.162a5.959,5.959,0,0,1-2.245.609,11.818,11.818,0,0,1,1.094-2.689.778.778,0,0,1,.982-.194,1.312,1.312,0,0,1,.591,1.066,1.48,1.48,0,0,1-.425,1.2Z" transform="translate(-179.352 -666.775)" fill="#6c63ff"/>
    <path id="Path_1075" data-name="Path 1075" d="M180.953,674.554a6.443,6.443,0,0,0,2.163,1.011,12.508,12.508,0,0,0-.82-2.862.812.812,0,0,0-.946-.342,1.189,1.189,0,0,0-.682.939,1.584,1.584,0,0,0,.283,1.253Z" transform="translate(-168.874 -595.227)" fill="#6c63ff"/>
    <path id="Path_1076" data-name="Path 1076" d="M167.71,722.065a5.763,5.763,0,0,0,2.291.1,10.359,10.359,0,0,0-1.422-2.4c-.476-.321-1.056-.065-1.3.571a1.518,1.518,0,0,0,.427,1.732Z" transform="translate(-156.64 -636.772)" fill="#6c63ff"/>
    <path id="Path_1077" data-name="Path 1077" d="M165.253,772.177a5.982,5.982,0,0,0,2.245.609,11.823,11.823,0,0,0-1.094-2.69.819.819,0,0,0-1.311.305,1.6,1.6,0,0,0,.164,1.766Z" transform="translate(-154.571 -680.905)" fill="#6c63ff"/>
    <path id="Path_1078" data-name="Path 1078" d="M164.45,800.6a4.983,4.983,0,0,0,1.975-.966c.416-.552,2.288-1.518,2.5-.828s2.807,3.036,1.04,3.45-4.159.552-4.68.275S164.45,800.6,164.45,800.6Z" transform="translate(-154.159 -706.098)" fill="#a8a8a8"/>
    <path id="Path_1079" data-name="Path 1079" d="M169.961,816.553c-1.768.414-4.159.552-4.68.276-.4-.211-.671-1.218-.779-1.69l-.052.015s.312,1.656.831,1.931,2.911.139,4.68-.275c.51-.122.655-.4.6-.755C170.516,816.286,170.34,816.463,169.961,816.553Z" transform="translate(-154.159 -720.652)" opacity="0.2"/>
  </g>
</svg>
