<svg xmlns="http://www.w3.org/2000/svg" xmlns:xlink="http://www.w3.org/1999/xlink" width="100" height="100.06" viewBox="0 0 100 100.06">
  <defs>
    <linearGradient id="linear-gradient" x1="0.5" y1="1" x2="0.5" gradientUnits="objectBoundingBox">
      <stop offset="0" stop-color="gray" stop-opacity="0.251"/>
      <stop offset="0.54" stop-color="gray" stop-opacity="0.122"/>
      <stop offset="1" stop-color="gray" stop-opacity="0.102"/>
    </linearGradient>
    <linearGradient id="linear-gradient-2" x1="0.5" y1="1" x2="0.5" y2="0" xlink:href="#linear-gradient"/>
  </defs>
  <g id="undraw_true_friends_c94g" transform="translate(-0.007 -0.001)">
    <g id="Group_20" data-name="Group 20" transform="translate(16.299 12.915)" opacity="0.2">
      <path id="Path_808" data-name="Path 808" d="M432.546,723.362a8.27,8.27,0,0,0,.2.9q1.9-1.137,3.842-2.18c-.011-.082-.022-.168-.036-.253a6.354,6.354,0,0,0-.807-2.338c-.518-.833-1.185-1.236-1.833-.99a2.787,2.787,0,0,0-1.335,2.193A7.835,7.835,0,0,0,432.546,723.362Z" transform="translate(-414.712 -643.749)" fill="#3f3d56"/>
      <path id="Path_862" data-name="Path 862" d="M2.417-.008C3.585-.135,4.394,1.614,4.224,3.9S2.97,8.139,1.8,8.266-.175,6.643,0,4.359,1.249.119,2.417-.008Z" transform="translate(16.094 70.282) rotate(-12.59)" fill="#3f3d56"/>
      <path id="Path_863" data-name="Path 863" d="M2.417-.008C3.585-.135,4.394,1.614,4.224,3.9S2.97,8.139,1.8,8.266-.175,6.643,0,4.359,1.249.119,2.417-.008Z" transform="translate(15.314 65.282) rotate(-12.59)" fill="#3f3d56"/>
      <path id="Path_864" data-name="Path 864" d="M2.417-.008C3.585-.135,4.394,1.614,4.224,3.9S2.97,8.139,1.8,8.266-.175,6.643,0,4.359,1.249.119,2.417-.008Z" transform="translate(14.532 60.284) rotate(-12.59)" fill="#3f3d56"/>
      <path id="Path_865" data-name="Path 865" d="M2.417-.008C3.585-.135,4.394,1.614,4.224,3.9S2.97,8.139,1.8,8.266-.175,6.643,0,4.359,1.249.119,2.417-.008Z" transform="translate(13.75 55.285) rotate(-12.59)" fill="#3f3d56"/>
      <path id="Path_809" data-name="Path 809" d="M256.682,202.3c.19-.648.35-1.315.479-2l-5.467.655,5.7-2.1a23.808,23.808,0,0,0-.1-6.592,20.292,20.292,0,0,0-1.57-5.336l-6.67,9.087,5.774-10.756c-2.357-3.835-5.923-5.659-9.467-4.3-5.3,2.017-8.54,10.353-7.248,18.619a17.753,17.753,0,0,0,3.5,8.469,21.991,21.991,0,0,0-.668,3.143l7.692,2.935-7.875-1.04a23.8,23.8,0,0,0,.244,5,17.768,17.768,0,0,0,3.5,8.469,23.344,23.344,0,0,0-.605,10.034c1.292,8.265,6.632,13.329,11.927,11.313s8.54-10.352,7.248-18.617a17.768,17.768,0,0,0-3.5-8.469,23.344,23.344,0,0,0,.605-10.034A17.769,17.769,0,0,0,256.682,202.3Z" transform="translate(-237.827 -180.514)" fill="#6c63ff"/>
      <path id="Path_810" data-name="Path 810" d="M272.674,446.584a17.769,17.769,0,0,0,3.5,8.469,23.35,23.35,0,0,0-.605,10.034c1.292,8.265,6.632,13.329,11.927,11.313s8.54-10.352,7.248-18.617a17.769,17.769,0,0,0-3.5-8.469C292.131,446.278,272.412,444.908,272.674,446.584Z" transform="translate(-269.496 -409.019)" opacity="0.1"/>
    </g>
    <g id="Group_21" data-name="Group 21" transform="translate(52.394 0.001)" opacity="0.2">
      <path id="Path_811" data-name="Path 811" d="M702.831,716.432a9.822,9.822,0,0,0-.039,1.091q2.383.058,4.784.244c.011-.1.022-.193.031-.292a8.647,8.647,0,0,0-.223-3.017c-.33-1.225-.945-2.1-1.715-2.27s-1.521.408-2.063,1.438A7.658,7.658,0,0,0,702.831,716.432Z" transform="translate(-696.517 -625.431)" fill="#3f3d56"/>
      <path id="Path_866" data-name="Path 866" d="M4.881-.011c2.62-.111,4.68.876,4.6,2.206S7.213,4.692,4.593,4.8-.087,3.927-.008,2.6,2.26.1,4.881-.011Z" transform="translate(6.208 90.052) rotate(-81.82)" fill="#3f3d56"/>
      <path id="Path_867" data-name="Path 867" d="M4.881-.011c2.62-.111,4.68.876,4.6,2.206S7.213,4.692,4.593,4.8-.087,3.927-.008,2.6,2.26.1,4.881-.011Z" transform="translate(6.757 84.23) rotate(-81.82)" fill="#3f3d56"/>
      <path id="Path_868" data-name="Path 868" d="M4.881-.011c2.62-.111,4.68.876,4.6,2.206S7.213,4.692,4.593,4.8-.087,3.927-.008,2.6,2.26.1,4.881-.011Z" transform="translate(7.306 78.409) rotate(-81.82)" fill="#3f3d56"/>
      <path id="Path_869" data-name="Path 869" d="M4.881-.011c2.62-.111,4.68.876,4.6,2.206S7.213,4.692,4.593,4.8-.087,3.927-.008,2.6,2.26.1,4.881-.011Z" transform="translate(7.856 72.587) rotate(-81.82)" fill="#3f3d56"/>
      <path id="Path_812" data-name="Path 812" d="M657.546,117.854a16.975,16.975,0,0,0,1.077-1.8l-6.126-2.932,6.779,1.562a25.652,25.652,0,0,0,1.521-13.762l-9.783,5.2,9.284-7.567c-1.612-6.115-5.329-10.348-9.635-10.969s-8.479,2.472-10.815,8.018a25.7,25.7,0,0,0-.282,18.321,17.906,17.906,0,0,0-1.6,2.892l7.537,8.231-8.266-6.342a25.91,25.91,0,0,0,.3,16.772c-4.362,6.337-4.8,16.719-.995,23.847s10.559,8.608,15.523,3.4,6.467-15.356,3.453-23.309C659.374,133.8,660.214,124.893,657.546,117.854Z" transform="translate(-633.95 -87.501)" fill="#6c63ff"/>
      <path id="Path_813" data-name="Path 813" d="M636.1,350.4a25.5,25.5,0,0,0,1.431,11.313c-4.363,6.337-4.8,16.719-.995,23.847s10.559,8.608,15.523,3.4,6.468-15.356,3.453-23.309C657.326,363.023,636.286,348.447,636.1,350.4Z" transform="translate(-633.95 -313.747)" opacity="0.1"/>
    </g>
    <ellipse id="Ellipse_124" data-name="Ellipse 124" cx="50" cy="3.5" rx="50" ry="3.5" transform="translate(0.007 92.274)" fill="#6c63ff" opacity="0.1"/>
    <ellipse id="Ellipse_125" data-name="Ellipse 125" cx="2.305" cy="0.676" rx="2.305" ry="0.676" transform="translate(79.225 93.271)" fill="#6c63ff"/>
    <ellipse id="Ellipse_126" data-name="Ellipse 126" cx="0.269" cy="0.536" rx="0.269" ry="0.536" transform="translate(81.223 93.125)" fill="#3f3d56"/>
    <ellipse id="Ellipse_127" data-name="Ellipse 127" cx="0.269" cy="0.536" rx="0.269" ry="0.536" transform="translate(81.223 92.469)" fill="#3f3d56"/>
    <ellipse id="Ellipse_128" data-name="Ellipse 128" cx="0.269" cy="0.536" rx="0.269" ry="0.536" transform="translate(81.223 91.815)" fill="#3f3d56"/>
    <ellipse id="Ellipse_129" data-name="Ellipse 129" cx="0.269" cy="0.536" rx="0.269" ry="0.536" transform="translate(81.223 91.162)" fill="#3f3d56"/>
    <ellipse id="Ellipse_130" data-name="Ellipse 130" cx="0.269" cy="0.536" rx="0.269" ry="0.536" transform="translate(81.223 90.506)" fill="#3f3d56"/>
    <ellipse id="Ellipse_131" data-name="Ellipse 131" cx="0.269" cy="0.536" rx="0.269" ry="0.536" transform="translate(81.223 89.852)" fill="#3f3d56"/>
    <ellipse id="Ellipse_132" data-name="Ellipse 132" cx="0.269" cy="0.536" rx="0.269" ry="0.536" transform="translate(81.223 89.198)" fill="#3f3d56"/>
    <path id="Path_814" data-name="Path 814" d="M941.359,681.831a2.189,2.189,0,0,0,.1-.225l-.7-.176.763.008a2.925,2.925,0,0,0,.024-1.552l-1.023.809.944-1.058c-.24-.638-.695-1.018-1.177-.983s-.911.478-1.111,1.147a2.828,2.828,0,0,0,.164,2.03,2.4,2.4,0,0,0-.147.357l.911.725-.976-.5a2.806,2.806,0,0,0,.211,1.841,2.746,2.746,0,0,0,.138,2.65.992.992,0,0,0,1.745,0,2.745,2.745,0,0,0,.138-2.65,2.8,2.8,0,0,0,0-2.421Z" transform="translate(-858.863 -596.574)" fill="#6c63ff"/>
    <path id="Path_815" data-name="Path 815" d="M939.081,710.092a2.67,2.67,0,0,0,.273,1.211,2.746,2.746,0,0,0,.138,2.65.992.992,0,0,0,1.745,0,2.746,2.746,0,0,0,.138-2.65C941.55,710.969,939.081,709.872,939.081,710.092Z" transform="translate(-858.882 -623.624)" opacity="0.1"/>
    <ellipse id="Ellipse_133" data-name="Ellipse 133" cx="3.08" cy="0.902" rx="3.08" ry="0.902" transform="translate(25.509 98.256)" fill="#6c63ff"/>
    <ellipse id="Ellipse_134" data-name="Ellipse 134" cx="0.359" cy="0.715" rx="0.359" ry="0.715" transform="translate(28.178 98.061)" fill="#3f3d56"/>
    <ellipse id="Ellipse_135" data-name="Ellipse 135" cx="0.359" cy="0.715" rx="0.359" ry="0.715" transform="translate(28.178 97.186)" fill="#3f3d56"/>
    <ellipse id="Ellipse_136" data-name="Ellipse 136" cx="0.359" cy="0.715" rx="0.359" ry="0.715" transform="translate(28.178 96.311)" fill="#3f3d56"/>
    <ellipse id="Ellipse_137" data-name="Ellipse 137" cx="0.359" cy="0.715" rx="0.359" ry="0.715" transform="translate(28.178 95.438)" fill="#3f3d56"/>
    <ellipse id="Ellipse_138" data-name="Ellipse 138" cx="0.359" cy="0.715" rx="0.359" ry="0.715" transform="translate(28.178 94.563)" fill="#3f3d56"/>
    <ellipse id="Ellipse_139" data-name="Ellipse 139" cx="0.359" cy="0.715" rx="0.359" ry="0.715" transform="translate(28.178 93.688)" fill="#3f3d56"/>
    <ellipse id="Ellipse_140" data-name="Ellipse 140" cx="0.359" cy="0.715" rx="0.359" ry="0.715" transform="translate(28.178 92.815)" fill="#3f3d56"/>
    <path id="Path_816" data-name="Path 816" d="M356.231,691.875a3.177,3.177,0,0,0,.133-.3l-.941-.236,1.019.012a3.892,3.892,0,0,0,.033-2.074l-1.367,1.08,1.26-1.405c-.323-.844-.928-1.343-1.569-1.294a1.9,1.9,0,0,0-1.477,1.525,3.778,3.778,0,0,0,.208,2.7,3.152,3.152,0,0,0-.2.478l1.224.972-1.3-.667a3.768,3.768,0,0,0,.273,2.458,3.667,3.667,0,0,0,.185,3.54,1.325,1.325,0,0,0,2.331,0,3.667,3.667,0,0,0,.185-3.54,3.75,3.75,0,0,0,0-3.236Z" transform="translate(-326.352 -604.327)" fill="#6c63ff"/>
    <path id="Path_817" data-name="Path 817" d="M353.173,729.462a3.576,3.576,0,0,0,.365,1.619,3.667,3.667,0,0,0,.185,3.54,1.325,1.325,0,0,0,2.331,0,3.668,3.668,0,0,0,.185-3.54C356.47,730.635,353.173,729.169,353.173,729.462Z" transform="translate(-326.361 -640.297)" opacity="0.1"/>
    <path id="Path_818" data-name="Path 818" d="M355.524,288.08a54.952,54.952,0,0,1-.535-5.592c-.026-1.111.026-2.241-.068-3.349-.046-.544-.128-1.079-.208-1.613l-.323-2.139a5.415,5.415,0,0,0-.031-1.232,6.033,6.033,0,0,0-.128-.626,12.022,12.022,0,0,0,.739-2.083,3.051,3.051,0,0,0,.126-1.04,2.177,2.177,0,0,0-.9-1.455,1.61,1.61,0,0,0-.775-.428,1.137,1.137,0,0,0-1.021.694,5.084,5.084,0,0,1,.066-1.643c-.238-.162-.478-.315-.719-.464-.035-.48-.047-.963-.036-1.445.006-.579.012-1.163.034-1.744,1.327-.738,2.213-2.656,2.222-4.808v-.176a6.159,6.159,0,0,0,.235-3.2,5.638,5.638,0,0,0-1.806-3.239,4.624,4.624,0,0,0-2.781-1.058,2.659,2.659,0,0,0-.968.093,3.824,3.824,0,0,0-.986.555,4.443,4.443,0,0,0-1.329,1.294,7.094,7.094,0,0,0-.7,3.888,24.692,24.692,0,0,0,.944,5.232,7.954,7.954,0,0,0,.565,1.593.467.467,0,0,0,.8.132q-.032.665-.02,1.333a1.662,1.662,0,0,0-1.374.522,1.108,1.108,0,0,0-.315.847c.251.01.461.294.5.673a2.024,2.024,0,0,1-.172.833c-.041.114-.082.229-.124.343a4.946,4.946,0,0,0-.829,2.231,1.229,1.229,0,0,0-.19.043,11.221,11.221,0,0,0-1.058.423l-2.526,1.013-.624.264-1,.4a5.8,5.8,0,0,0-1.853,1.031,3.708,3.708,0,0,0-1.16,2.292c-.057.483-.022.986-.091,1.465a.355.355,0,0,1-.009.064,6.288,6.288,0,0,1-.232.876,17.461,17.461,0,0,0-.893,5.8,24.8,24.8,0,0,0,.494,3.61q.347,1.815.685,3.629c.149.866.337,1.715.564,2.541A10.532,10.532,0,0,0,339.4,297.9a3.29,3.29,0,0,0,.674.694,1.721,1.721,0,0,0,1.185.293,2.288,2.288,0,0,0,.323-.056,5.117,5.117,0,0,0,2.182-1.411q.42-.405.82-.854a11.7,11.7,0,0,0,.182,1.377,3.642,3.642,0,0,1,.108.948,6.691,6.691,0,0,1-.356,1.233,9.806,9.806,0,0,0,.046,2.823,15.553,15.553,0,0,1-.219,2.649,41.6,41.6,0,0,0-.336,4.432c0,.564-.025,1.127-.073,1.685-.085.789-.283,1.55-.318,2.347-.053,1.241.3,2.456.267,3.7-.037,1.459-.6,2.877-.4,4.3.025.179.091.386.2.432l-.053.074c-.161.228-.318.648-.135.833a.288.288,0,0,0,.137.072c.284.09.569.172.854.248a6.048,6.048,0,0,0,.1,1.188c.052.057.1.108.158.157a.436.436,0,0,0,.057.417.288.288,0,0,0,.138.072,19.879,19.879,0,0,0,7.139.9,1.876,1.876,0,0,0,1.241-.405,1.722,1.722,0,0,0,.438-1.627,1.5,1.5,0,0,0-.919-.912l-.425-.2a1.637,1.637,0,0,0,.038-.972,1.5,1.5,0,0,0-.918-.912l-.978-.462a.871.871,0,0,1-.355-.254,2.931,2.931,0,0,1-.193-.342,1.156,1.156,0,0,0-.533-.51c-.011-.316-.006-.632.014-.947l.273-5.027a16.522,16.522,0,0,0-.053-3.411,4.56,4.56,0,0,1-.114-1.366c.107-.739.617-1.15.965-1.7a7.628,7.628,0,0,0,.808-3.145,96.366,96.366,0,0,0,.467-14.08,10.212,10.212,0,0,1,3.355-.822c.193-.012.288-.151.348-.426A2.587,2.587,0,0,0,355.524,288.08Zm-5.454.246c.006-.048.014-.1.019-.146l.076.147Z" transform="translate(-310.719 -228.665)" fill="url(#linear-gradient)"/>
    <path id="Path_819" data-name="Path 819" d="M465.366,320.949c-.024.483-.136.947-.177,1.429-.047.53-.005,1.07-.028,1.6a2.675,2.675,0,0,1-.391,1.445,13.226,13.226,0,0,1,4.549,1.5,6.69,6.69,0,0,1-.445-3.065,22.351,22.351,0,0,1,.372-4.686,4.984,4.984,0,0,0-3.074-.061c-.221.067-.888.025-.988.339C465.112,319.685,465.382,320.6,465.366,320.949Z" transform="translate(-427.792 -286.773)" fill="#a1616a"/>
    <path id="Path_820" data-name="Path 820" d="M465.366,320.949c-.024.483-.136.947-.177,1.429-.047.53-.005,1.07-.028,1.6a2.675,2.675,0,0,1-.391,1.445,13.226,13.226,0,0,1,4.549,1.5,6.69,6.69,0,0,1-.445-3.065,22.351,22.351,0,0,1,.372-4.686,4.984,4.984,0,0,0-3.074-.061c-.221.067-.888.025-.988.339C465.112,319.685,465.382,320.6,465.366,320.949Z" transform="translate(-427.792 -286.773)" opacity="0.1"/>
    <path id="Path_821" data-name="Path 821" d="M427.093,744.132a3.021,3.021,0,0,0,.182.349.843.843,0,0,0,.347.254l.955.462a1.477,1.477,0,0,1,.9.911,1.745,1.745,0,0,1-.429,1.625,1.815,1.815,0,0,1-1.213.405,19.09,19.09,0,0,1-6.979-.9.3.3,0,0,1-.134-.072c-.182-.187-.026-.607.131-.833.615-.889,1.284-1.82,2.121-2.026a11.969,11.969,0,0,0,1.319-.225c.314-.115.612-.314.925-.432A1.429,1.429,0,0,1,427.093,744.132Z" transform="translate(-387.682 -652.419)" fill="#46455b"/>
    <path id="Path_822" data-name="Path 822" d="M427.093,744.132a3.021,3.021,0,0,0,.182.349.843.843,0,0,0,.347.254l.955.462a1.477,1.477,0,0,1,.9.911,1.745,1.745,0,0,1-.429,1.625,1.815,1.815,0,0,1-1.213.405,19.09,19.09,0,0,1-6.979-.9.3.3,0,0,1-.134-.072c-.182-.187-.026-.607.131-.833.615-.889,1.284-1.82,2.121-2.026a11.969,11.969,0,0,0,1.319-.225c.314-.115.612-.314.925-.432A1.429,1.429,0,0,1,427.093,744.132Z" transform="translate(-387.682 -652.419)" opacity="0.1"/>
    <path id="Path_823" data-name="Path 823" d="M422.648,514.994a13.221,13.221,0,0,0-.082,5.9c-.318-.053-.456.6-.447,1.091a12.035,12.035,0,0,0,.2,2.01,3.726,3.726,0,0,1,.107.947,6.775,6.775,0,0,1-.349,1.232,10.008,10.008,0,0,0,.046,2.819,15.783,15.783,0,0,1-.215,2.646,42.511,42.511,0,0,0-.328,4.425q0,.845-.072,1.684c-.082.788-.273,1.548-.31,2.343-.052,1.239.292,2.453.261,3.695-.036,1.456-.587,2.872-.394,4.3.027.2.1.439.237.442,1.374.026,2.658-.555,4.018-.251a141.269,141.269,0,0,1,.893-14.313c.547-4.189,1.474-8.331,1.387-12.6-.05-2.442-.431-4.837-.662-7.256A4.414,4.414,0,0,0,422.648,514.994Z" transform="translate(-388.032 -454.685)" fill="#bbbdc8"/>
    <path id="Path_824" data-name="Path 824" d="M422.648,514.994a13.221,13.221,0,0,0-.082,5.9c-.318-.053-.456.6-.447,1.091a12.035,12.035,0,0,0,.2,2.01,3.726,3.726,0,0,1,.107.947,6.775,6.775,0,0,1-.349,1.232,10.008,10.008,0,0,0,.046,2.819,15.783,15.783,0,0,1-.215,2.646,42.511,42.511,0,0,0-.328,4.425q0,.845-.072,1.684c-.082.788-.273,1.548-.31,2.343-.052,1.239.292,2.453.261,3.695-.036,1.456-.587,2.872-.394,4.3.027.2.1.439.237.442,1.374.026,2.658-.555,4.018-.251a141.269,141.269,0,0,1,.893-14.313c.547-4.189,1.474-8.331,1.387-12.6-.05-2.442-.431-4.837-.662-7.256A4.414,4.414,0,0,0,422.648,514.994Z" transform="translate(-388.032 -454.685)" opacity="0.1"/>
    <path id="Path_825" data-name="Path 825" d="M441.093,759.132a2.973,2.973,0,0,0,.182.348.838.838,0,0,0,.347.254l.955.462a1.476,1.476,0,0,1,.9.911,1.746,1.746,0,0,1-.429,1.625,1.814,1.814,0,0,1-1.213.405,19.079,19.079,0,0,1-6.979-.9.293.293,0,0,1-.134-.072c-.182-.187-.026-.607.131-.833.615-.888,1.284-1.82,2.121-2.026a11.966,11.966,0,0,0,1.319-.225c.314-.115.611-.314.925-.432A1.429,1.429,0,0,1,441.093,759.132Z" transform="translate(-400.406 -665.337)" fill="#46455b"/>
    <path id="Path_826" data-name="Path 826" d="M433.352,516.952a5.061,5.061,0,0,0-.408,2.48,14.923,14.923,0,0,0,.428,2.527,2.486,2.486,0,0,0-.166,1.473c.119,1.919-.318,3.833-.254,5.758.026.81.142,1.607.169,2.417a23.548,23.548,0,0,1-.113,2.648q-.664,8.439-.729,16.951a8.27,8.27,0,0,0,.091,1.552,2.011,2.011,0,0,0,2.3.565,7.637,7.637,0,0,0,2.253-1.508,7.459,7.459,0,0,0,1.115-1.1.983.983,0,0,0,.224-.469c.077-.555-.43-.807-.721-1.166a3.7,3.7,0,0,1-.373-2.32l.264-5.021a16.871,16.871,0,0,0-.051-3.407,4.736,4.736,0,0,1-.112-1.365,4.272,4.272,0,0,1,.943-1.7,7.754,7.754,0,0,0,.791-3.139A98.548,98.548,0,0,0,439.354,516a5.865,5.865,0,0,1-2.17.244c-.706.083-1.408.443-2.123.472C434.465,516.737,433.718,516.236,433.352,516.952Z" transform="translate(-398.262 -456.505)" fill="#bbbdc8"/>
    <ellipse id="Ellipse_141" data-name="Ellipse 141" cx="3.5" cy="3" rx="3.5" ry="3" transform="translate(36.007 27.274)" fill="#a1616a"/>
    <path id="Path_827" data-name="Path 827" d="M436.411,355.8a14.534,14.534,0,0,0-3.363-1.769,2.092,2.092,0,0,0-2.426.269,1.107,1.107,0,0,0-.308.847c.248.012.454.3.486.672a2.059,2.059,0,0,1-.168.833l-.786,2.221a11.193,11.193,0,0,0-.387,1.25,12.8,12.8,0,0,0-.227,2.2l-.091,2.016a36.714,36.714,0,0,0-.038,3.814,18.91,18.91,0,0,1,.1,2.868c-.072.765-.284,1.483-.4,2.236a27.637,27.637,0,0,1-.557,4.268.583.583,0,0,1,.564-.078c1.32.371,2.357,1.958,3.639,2.564.323-.719.762-1.25,1.124-1.919a4.812,4.812,0,0,0,.517-1.741,7.66,7.66,0,0,1,.669,1.633,1.343,1.343,0,0,0,.146.407c.172.255.456.157.686.05a9.841,9.841,0,0,1,3.478-.9c.19-.012.282-.151.341-.426a2.593,2.593,0,0,0-.009-.855c-.227-1.851-.48-3.7-.522-5.586-.026-1.111.024-2.237-.068-3.345-.045-.543-.125-1.077-.2-1.611l-.651-4.406c-.036-.246-.209-.407-.283-.633-.3-.922-.87-1.588-1.165-2.513A4.909,4.909,0,0,1,436.411,355.8Z" transform="translate(-394.59 -316.808)" fill="#46455b"/>
    <path id="Path_828" data-name="Path 828" d="M446.376,261.967a.49.49,0,0,1,.032-.205.318.318,0,0,1,.131-.124,1.255,1.255,0,0,0,.385-1.126l.319-.1.01-1.693c.474-.4,1.12-.1,1.565-.568a3.524,3.524,0,0,0,.532-1.122c.153-.4.381-.808.685-.841a4.4,4.4,0,0,0,.1,2.517,2.522,2.522,0,0,0,.768-1.094l.159,1.388a.441.441,0,0,0,.067.226c.083.093.2-.024.268-.139l.413-.618a12.464,12.464,0,0,1,.354,2.067,6.006,6.006,0,0,0-1.137-7.231,4.457,4.457,0,0,0-2.718-1.057,2.571,2.571,0,0,0-.946.093,3.715,3.715,0,0,0-.964.555,4.369,4.369,0,0,0-1.3,1.291,7.22,7.22,0,0,0-.682,3.888,25.217,25.217,0,0,0,.923,5.225,8.027,8.027,0,0,0,.552,1.591c.369.712,1.276.121,1.16-1.287C446.98,262.6,446.376,262.986,446.376,261.967Z" transform="translate(-409.286 -229.364)" fill="#3f3d56"/>
    <path id="Path_829" data-name="Path 829" d="M353.541,410.721a21.4,21.4,0,0,1-5.053,8.692,5,5,0,0,1-2.133,1.409,2.259,2.259,0,0,1-.316.056,1.666,1.666,0,0,1-1.155-.3,3.259,3.259,0,0,1-.66-.694,10.614,10.614,0,0,1-1.65-3.434c-.222-.826-.406-1.674-.551-2.538q-.335-1.813-.669-3.628a25.017,25.017,0,0,1-.483-3.61,17.788,17.788,0,0,1,.873-5.791,6.451,6.451,0,0,0,.227-.875.56.56,0,0,1,.009-.064c.066-.479.032-.98.091-1.464a3.73,3.73,0,0,1,1.134-2.289,5.6,5.6,0,0,1,1.812-1.03l.978-.4.607-.248,2.468-1.012a9.37,9.37,0,0,1,1.034-.416c.387-.111.385-.053.415.525.056,1.047.037,2.076.182,3.113.138.99.38,1.944.562,2.916.46,2.453.537,5.036.9,7.528a3.2,3.2,0,0,0,.5,1.527c.344.417.922.519,1.013,1.172A2.154,2.154,0,0,1,353.541,410.721Z" transform="translate(-315.175 -350.616)" fill="#6c63ff"/>
    <path id="Path_830" data-name="Path 830" d="M346.355,463.661a2.267,2.267,0,0,1-.316.055,1.662,1.662,0,0,1-1.155-.293,3.262,3.262,0,0,1-.66-.694,10.613,10.613,0,0,1-1.65-3.434c-.222-.825-.406-1.674-.551-2.538q-.335-1.813-.669-3.628a25.021,25.021,0,0,1-.483-3.61,17.788,17.788,0,0,1,.873-5.791,6.455,6.455,0,0,0,.227-.875.563.563,0,0,1,.009-.064c1.487.4,3.271,4.733,4.192,10.413A30.836,30.836,0,0,1,346.355,463.661Z" transform="translate(-315.175 -393.46)" opacity="0.1"/>
    <path id="Path_831" data-name="Path 831" d="M400.147,415.044l-.249.065c-.256-1.025-.511-2.051-.811-3.048-.156-.521-.324-1.034-.456-1.572-.492-2.063-.408-4.511-1.32-6.211a1.968,1.968,0,0,0-.221-.341l.607-.248a16.8,16.8,0,0,1,1.106,4.18c.1.725.154,1.466.314,2.163q.2.793.467,1.547A10.21,10.21,0,0,1,400.147,415.044Z" transform="translate(-366.279 -359.789)" opacity="0.1"/>
    <path id="Path_832" data-name="Path 832" d="M445.418,365.592a2.4,2.4,0,0,1,2.4-1.111,3.839,3.839,0,0,1,1.411.833,8.872,8.872,0,0,1,2.36,2.677,12.827,12.827,0,0,1,.931,2.388,8.009,8.009,0,0,1,.273,1.168,9.321,9.321,0,0,1-.849,4.519l-1.012,2.674a26.426,26.426,0,0,1-1.538,3.545c-.279.5-.585.957-.89,1.416l-1.34,2.016a.219.219,0,0,1-.091.093.175.175,0,0,1-.158-.1l-.443-.537a9.555,9.555,0,0,0,1.132-1.462,24.636,24.636,0,0,0,1.53-3.011l1.474-3.257a7,7,0,0,0,.833-3.159,6.885,6.885,0,0,0-.3-1.587q-.38-1.359-.826-2.675a15.717,15.717,0,0,0-1.178-2.788,4.214,4.214,0,0,0-1.786-1.829,1.009,1.009,0,0,0-.647-.094c-.479.121-.82.748-1.124,1.332l-.924,1.8c-.211.409-.4.885-.416.107A5.748,5.748,0,0,1,445.418,365.592Z" transform="translate(-409.128 -325.98)" fill="#6c63ff"/>
    <path id="Path_833" data-name="Path 833" d="M453.524,386.9c.182,1.069.451,2.283,1.126,2.688a1.156,1.156,0,0,0,1.453-.417,6.359,6.359,0,0,0,.977-1.8q.342-.9.754-1.741a17.1,17.1,0,0,0,1.64-3.054c.107-.358.182-.741.3-1.086a7.37,7.37,0,0,1,.441-.9,11.756,11.756,0,0,0,.994-2.63,3.108,3.108,0,0,0,.123-1.038,2.177,2.177,0,0,0-.876-1.452,1.556,1.556,0,0,0-.757-.427,1.143,1.143,0,0,0-1.028.754,4.143,4.143,0,0,0-.375,1.69,12.3,12.3,0,0,1-.091,2.209,4.2,4.2,0,0,1-.344.905A9.3,9.3,0,0,1,456,383.228a7.206,7.206,0,0,0-.221-1.531c-.069-.269-1.427,0-1.6.044-.35.078-1.028.139-1.248.647a3.875,3.875,0,0,0,.142,1.875Z" transform="translate(-416.947 -335.114)" fill="#a1616a"/>
    <path id="Path_834" data-name="Path 834" d="M447.735,372.385a6.613,6.613,0,0,0-.561.833,6.439,6.439,0,0,0-.653,2.671,17.391,17.391,0,0,0,.144,2.88q.148,1.28.349,2.542a1.741,1.741,0,0,1,.766-1.389,1.65,1.65,0,0,1,1.236-.111,4.6,4.6,0,0,1,1.555.685l.192-4.106a10.837,10.837,0,0,0-.006-1.666,4.051,4.051,0,0,0-1.124-2.492C448.9,371.554,448.391,371.511,447.735,372.385Z" transform="translate(-411.191 -332.263)" fill="#46455b"/>
    <path id="Path_835" data-name="Path 835" d="M608.943,286.2a13.694,13.694,0,0,0-.629-3.2,14.817,14.817,0,0,1-.573-1.849c-.1-.532-.123-1.091-.205-1.631s-.227-1.057-.344-1.584c-.825-3.749-.2-7.85-.471-11.779-.1-1.449-.391-3.039-1.216-3.795a2.514,2.514,0,0,0-1.655-.555l-.264-.018-.423-.032a4.635,4.635,0,0,0-1.822.115,2.938,2.938,0,0,0-1.823,2.159c-.126-.1-.252-.186-.369-.268a5.14,5.14,0,0,0-1.466-.694,4.571,4.571,0,0,0,1.245-.733c.911-.808,1.123-3.168,1.309-4.747a15.266,15.266,0,0,0-.293-4.744,11.008,11.008,0,0,0-.414-1.572,4.269,4.269,0,0,0-2.283-2.664,2.611,2.611,0,0,0-2.835.734,14.739,14.739,0,0,0-2.289,3.275c-.091.164-.472.744-.345.989.071.139.305.028.551-.139a7.438,7.438,0,0,0-.286,2.069,6.06,6.06,0,0,0,1.661,4.432l.091,1.277v.01c.01.426.015.853.018,1.277,0,.3,0,.6-.006.909a4.812,4.812,0,0,1-1.36,1.541,1.538,1.538,0,0,0,1.234-.305,3.349,3.349,0,0,1-.319.936c.109-.058.219-.111.328-.167a4.563,4.563,0,0,0-.152.436,4.775,4.775,0,0,0-.147.741,12.747,12.747,0,0,0-.6,1.635h0q-.115.39-.207.791v.018q-.092.4-.162.811h0q-.033.2-.06.4v.029q-.054.4-.091.81v.055c-.01.126-.019.254-.026.382v.019c-.007.139-.013.271-.016.407v.479c0,.261.011.523.027.786a.515.515,0,0,0,.006.1c.007.107.016.214.026.322a.284.284,0,0,0,.006.074c.012.129.026.257.041.385a.688.688,0,0,0,.012.085c.013.1.026.2.042.307l.016.105c.02.128.041.254.065.382.013.072.027.139.042.215.043.263.074.531.091.8l-.5.025q-1.6.069-3.2.221a1.488,1.488,0,0,0-1.158-1.34,1.508,1.508,0,0,0-.273-.025h0a2.225,2.225,0,0,0,.261-.432,2.479,2.479,0,0,0,.208-.694,1.611,1.611,0,0,0-.377.5c-.034.069-.064.139-.091.2v-.417a.084.084,0,0,0-.012-.048.037.037,0,0,0-.031-.019h-.091a.037.037,0,0,0-.031.019.086.086,0,0,0-.013.048v.848h-.049a1.234,1.234,0,0,0-.176.036A1.679,1.679,0,0,0,586,276.747a2.819,2.819,0,0,0,.514,1.691,7.126,7.126,0,0,0,.141.936,1.422,1.422,0,0,0,.329.779.534.534,0,0,0,.359.1c1.013,0,1.972-.712,2.981-.833.623-.076,1.249.071,1.874.042a2.292,2.292,0,0,0,.274-.025c-.855,6.449-1.889,12.98-1.349,19.495a2.5,2.5,0,0,0,.3,1.2c.282.392.715.328,1.093.278a6.131,6.131,0,0,1,3.094.376.628.628,0,0,0,.435.024.612.612,0,0,0,.091-.04l.025-.015a.609.609,0,0,0,.055-.035l.026-.021.045-.042c.007-.008.016-.015.022-.024a.468.468,0,0,0,.045-.056l.013-.017a.922.922,0,0,0,.048-.081l.011-.025c.01-.021.02-.043.029-.065s.009-.022.013-.033.015-.042.021-.062a.325.325,0,0,0,.01-.038c0-.013.012-.046.017-.07s0-.022.007-.035a.584.584,0,0,0,.017-.1v-.022c0-.029.007-.06.01-.089a.248.248,0,0,0,0-.046v-.353h0c0-.124-.009-.249-.017-.368a1.048,1.048,0,0,0,.2.065h0a.733.733,0,0,0,.19.021h.009a.26.26,0,0,0,.091-.011h0a.554.554,0,0,0,.078-.025h.012a.348.348,0,0,0,.069-.042l.011-.01a.422.422,0,0,0,.054-.056l.008-.01a.477.477,0,0,0,.045-.081l.008-.021a.584.584,0,0,0,.032-.107c.052-.268-.066-.571.123-.816a16.084,16.084,0,0,1,.395,2.7,2.563,2.563,0,0,0,.129.972,3.853,3.853,0,0,0,.273.425,3.415,3.415,0,0,1,.266,1.774c-.008.251-.017.5-.029.754a54.722,54.722,0,0,1-1.331,9.831,7.012,7.012,0,0,1-.279.972,4.576,4.576,0,0,1-.685,1.147,9.9,9.9,0,0,1-1.216,1.318,4.066,4.066,0,0,0-.619.626c-.008-.032-.016-.062-.021-.1-.01-.064-.024-.139-.065-.162a.089.089,0,0,0-.091.022c-.427.286-.855.572-1.266.907a1.766,1.766,0,0,0-.534.629,1.231,1.231,0,0,0-.035.972.745.745,0,0,0,.531.378,6.415,6.415,0,0,0,.762.153,1.5,1.5,0,0,0-.336.455,1.231,1.231,0,0,0-.035.972.745.745,0,0,0,.532.378,15.915,15.915,0,0,0,4.912.065,3.667,3.667,0,0,0,1.583-.3.766.766,0,0,0,.273-.218,2.073,2.073,0,0,0,.167-1.309l-.167-1.877a.23.23,0,0,0-.072.021,40.625,40.625,0,0,1,.748-5.193c.556-2.631,1.383-5.223,1.372-7.976v-.2c-.016-.862-.117-1.715-.182-2.573-.1-1.436-.091-2.884-.085-4.326a14.114,14.114,0,0,1,.077-1.69.388.388,0,0,1,.008-.057l1.514-.061a.758.758,0,0,0,.488-.139.6.6,0,0,0,.177-.6c.645.446,1.508-.161,1.7-1.194q.02-.109.032-.221a.1.1,0,0,1,0-.017c.006-.069.011-.139.013-.207v-.035h0a5.738,5.738,0,0,0-.143-1.4,29.784,29.784,0,0,0-1.264-3.786c-.239-.637-.47-1.283-.7-1.931l.2.387a1.174,1.174,0,0,0,.267.39c.369.29.756-.294,1.131-.564.5-.358,1.081-.147,1.632-.088a1.231,1.231,0,0,0,1.411-.934A3.09,3.09,0,0,0,608.943,286.2Zm-9.488-20.867c0,.3.013.6.028.9a9.066,9.066,0,0,0-.638-1.291Z" transform="translate(-537.975 -226.098)" fill="url(#linear-gradient-2)"/>
    <path id="Path_836" data-name="Path 836" d="M600.843,433.151a1.617,1.617,0,0,1,.372-.5,2.484,2.484,0,0,1-.205.694c-.158.329-.325.555-.372.5A1.311,1.311,0,0,1,600.843,433.151Z" transform="translate(-551.268 -384.728)" fill="#99d55c"/>
    <path id="Path_837" data-name="Path 837" d="M601.625,434.123a1.21,1.21,0,0,1,.273-.373,1.856,1.856,0,0,1-.152.514c-.119.244-.242.416-.274.374A1.012,1.012,0,0,1,601.625,434.123Z" transform="translate(-552.031 -385.675)" opacity="0.1"/>
    <path id="Path_838" data-name="Path 838" d="M541.188,346.77h.091c.024,0,.044.03.044.067v1.573h-.173v-1.573C541.15,346.8,541.166,346.774,541.188,346.77Z" transform="translate(-491.836 -298.623)" fill="#f6987e"/>
    <path id="Path_839" data-name="Path 839" d="M588.916,442.6c0,1.227-.653,2.222-1.458,2.222S586,443.828,586,442.6a1.672,1.672,0,0,1,1.063-1.8,1.435,1.435,0,0,1,.4-.054,1.485,1.485,0,0,1,.273.025C588.406,440.9,588.916,441.516,588.916,442.6Z" transform="translate(-537.975 -391.703)" fill="#fc4a4a"/>
    <path id="Path_840" data-name="Path 840" d="M598.329,440.807c-.026.076-.169.139-.343.139a.44.44,0,0,1-.326-.1,1.434,1.434,0,0,1,.4-.054A1.478,1.478,0,0,1,598.329,440.807Z" transform="translate(-548.573 -391.736)" opacity="0.1"/>
    <path id="Path_841" data-name="Path 841" d="M587.7,444.847c-.806,0-1.458-.995-1.458-2.222a1.682,1.682,0,0,1,1.029-1.785,1.341,1.341,0,0,0-.209.042,1.672,1.672,0,0,0-1.063,1.8c0,1.227.653,2.222,1.458,2.222a.968.968,0,0,0,.327-.057A.833.833,0,0,1,587.7,444.847Z" transform="translate(-537.975 -391.781)" opacity="0.1"/>
    <path id="Path_842" data-name="Path 842" d="M673.553,599.333a.767.767,0,0,0,.783.24l1.246-.139a5.141,5.141,0,0,0,2.886-.953.816.816,0,0,0,.24-.278,1.668,1.668,0,0,0,.1-.6,40.768,40.768,0,0,1,.8-6.052c.547-2.617,1.367-5.2,1.356-7.937v-.2c-.016-.858-.115-1.706-.176-2.56-.1-1.429-.091-2.869-.084-4.3a14.138,14.138,0,0,1,.077-1.681c.057-.451.273-.9.141-1.3a1.9,1.9,0,0,0-1.684-1.082,4.719,4.719,0,0,0-1.984.5,1.147,1.147,0,0,0-.554.382,2.176,2.176,0,0,0-.265,1.152c-.035,1.854.666,3.578.722,5.429a2.615,2.615,0,0,0,.128.972,3.707,3.707,0,0,0,.273.423,3.436,3.436,0,0,1,.262,1.765q-.012.374-.028.75a54.79,54.79,0,0,1-1.315,9.781,7.056,7.056,0,0,1-.273.972,4.606,4.606,0,0,1-.676,1.141,9.909,9.909,0,0,1-1.2,1.311,2.9,2.9,0,0,0-.78.905A1.5,1.5,0,0,0,673.553,599.333Z" transform="translate(-617.4 -505.149)" fill="#fda8a8"/>
    <path id="Path_843" data-name="Path 843" d="M673.553,599.333a.767.767,0,0,0,.783.24l1.246-.139a5.141,5.141,0,0,0,2.886-.953.816.816,0,0,0,.24-.278,1.668,1.668,0,0,0,.1-.6,40.768,40.768,0,0,1,.8-6.052c.547-2.617,1.367-5.2,1.356-7.937v-.2c-.016-.858-.115-1.706-.176-2.56-.1-1.429-.091-2.869-.084-4.3a14.138,14.138,0,0,1,.077-1.681c.057-.451.273-.9.141-1.3a1.9,1.9,0,0,0-1.684-1.082,4.719,4.719,0,0,0-1.984.5,1.147,1.147,0,0,0-.554.382,2.176,2.176,0,0,0-.265,1.152c-.035,1.854.666,3.578.722,5.429a2.615,2.615,0,0,0,.128.972,3.707,3.707,0,0,0,.273.423,3.436,3.436,0,0,1,.262,1.765q-.012.374-.028.75a54.79,54.79,0,0,1-1.315,9.781,7.056,7.056,0,0,1-.273.972,4.606,4.606,0,0,1-.676,1.141,9.909,9.909,0,0,1-1.2,1.311,2.9,2.9,0,0,0-.78.905A1.5,1.5,0,0,0,673.553,599.333Z" transform="translate(-617.4 -505.149)" opacity="0.1"/>
    <path id="Path_844" data-name="Path 844" d="M673.553,668.367a.767.767,0,0,0,.783.24l1.246-.139a5.143,5.143,0,0,0,2.886-.954.813.813,0,0,0,.24-.278,1.669,1.669,0,0,0,.1-.6,40.761,40.761,0,0,1,.8-6.052c.547-2.617,1.367-5.2,1.356-7.936a17.245,17.245,0,0,1-3.172.239,54.775,54.775,0,0,1-1.315,9.781,7.07,7.07,0,0,1-.273.972,4.593,4.593,0,0,1-.676,1.141,9.892,9.892,0,0,1-1.2,1.311,2.9,2.9,0,0,0-.78.905A1.515,1.515,0,0,0,673.553,668.367Z" transform="translate(-617.4 -574.183)" fill="#eeeff3"/>
    <path id="Path_845" data-name="Path 845" d="M673.553,668.367a.767.767,0,0,0,.783.24l1.246-.139a5.143,5.143,0,0,0,2.886-.954.813.813,0,0,0,.24-.278,1.669,1.669,0,0,0,.1-.6,40.761,40.761,0,0,1,.8-6.052c.547-2.617,1.367-5.2,1.356-7.936a17.245,17.245,0,0,1-3.172.239,54.775,54.775,0,0,1-1.315,9.781,7.07,7.07,0,0,1-.273.972,4.593,4.593,0,0,1-.676,1.141,9.892,9.892,0,0,1-1.2,1.311,2.9,2.9,0,0,0-.78.905A1.515,1.515,0,0,0,673.553,668.367Z" transform="translate(-617.4 -574.183)" opacity="0.1"/>
    <path id="Path_846" data-name="Path 846" d="M658.93,748.876a4.292,4.292,0,0,0,.858-.625l1.373-1.18a.992.992,0,0,1,.407-.251l.164,1.867a2.07,2.07,0,0,1-.164,1.3.765.765,0,0,1-.274.216,3.579,3.579,0,0,1-1.563.293,15.422,15.422,0,0,1-4.853-.065.749.749,0,0,1-.524-.375,1.224,1.224,0,0,1,.034-.962,1.761,1.761,0,0,1,.528-.626c.406-.333.828-.617,1.25-.9a.087.087,0,0,1,.087-.022c.041.021.054.1.065.161a1.649,1.649,0,0,0,.589,1.031A3.983,3.983,0,0,0,658.93,748.876Z" transform="translate(-600.025 -655.278)" fill="#bbbdc8"/>
    <path id="Path_847" data-name="Path 847" d="M658.93,748.876a4.292,4.292,0,0,0,.858-.625l1.373-1.18a.992.992,0,0,1,.407-.251l.164,1.867a2.07,2.07,0,0,1-.164,1.3.765.765,0,0,1-.274.216,3.579,3.579,0,0,1-1.563.293,15.422,15.422,0,0,1-4.853-.065.749.749,0,0,1-.524-.375,1.224,1.224,0,0,1,.034-.962,1.761,1.761,0,0,1,.528-.626c.406-.333.828-.617,1.25-.9a.087.087,0,0,1,.087-.022c.041.021.054.1.065.161a1.649,1.649,0,0,0,.589,1.031A3.983,3.983,0,0,0,658.93,748.876Z" transform="translate(-600.025 -655.278)" opacity="0.1"/>
    <path id="Path_848" data-name="Path 848" d="M683.553,613.333a.767.767,0,0,0,.783.24l1.246-.139a5.138,5.138,0,0,0,2.886-.954.808.808,0,0,0,.24-.278,1.676,1.676,0,0,0,.1-.6,40.731,40.731,0,0,1,.8-6.052c.547-2.617,1.367-5.2,1.356-7.936v-.2c-.016-.858-.115-1.706-.176-2.56-.1-1.429-.091-2.869-.084-4.3a14.141,14.141,0,0,1,.076-1.681c.058-.451.274-.9.141-1.3a1.9,1.9,0,0,0-1.684-1.081,4.714,4.714,0,0,0-1.984.5,1.14,1.14,0,0,0-.554.382,2.174,2.174,0,0,0-.265,1.153c-.034,1.854.666,3.578.722,5.428a2.61,2.61,0,0,0,.128.972,3.8,3.8,0,0,0,.273.424,3.438,3.438,0,0,1,.262,1.765c-.008.25-.017.5-.028.749a54.788,54.788,0,0,1-1.315,9.781,7.045,7.045,0,0,1-.273.972,4.594,4.594,0,0,1-.676,1.141,9.876,9.876,0,0,1-1.2,1.311,2.9,2.9,0,0,0-.78.905A1.5,1.5,0,0,0,683.553,613.333Z" transform="translate(-626.489 -517.205)" fill="#fda8a8"/>
    <path id="Path_849" data-name="Path 849" d="M683.553,682.367a.768.768,0,0,0,.783.24l1.246-.139a5.137,5.137,0,0,0,2.886-.954.811.811,0,0,0,.24-.278,1.675,1.675,0,0,0,.1-.6,40.725,40.725,0,0,1,.8-6.052c.547-2.617,1.367-5.2,1.356-7.936a17.265,17.265,0,0,1-3.172.239,54.786,54.786,0,0,1-1.315,9.781,7.055,7.055,0,0,1-.273.972,4.6,4.6,0,0,1-.676,1.141,9.867,9.867,0,0,1-1.2,1.31,2.9,2.9,0,0,0-.78.905A1.514,1.514,0,0,0,683.553,682.367Z" transform="translate(-626.489 -586.239)" fill="#eeeff3"/>
    <path id="Path_850" data-name="Path 850" d="M668.93,762.876a4.288,4.288,0,0,0,.859-.625l1.373-1.18a.989.989,0,0,1,.407-.251l.164,1.867a2.064,2.064,0,0,1-.164,1.3.761.761,0,0,1-.273.217,3.579,3.579,0,0,1-1.564.293,15.418,15.418,0,0,1-4.853-.065.749.749,0,0,1-.524-.375,1.223,1.223,0,0,1,.034-.962,1.767,1.767,0,0,1,.528-.627c.406-.333.828-.616,1.25-.9a.088.088,0,0,1,.086-.022c.041.021.054.1.065.161a1.65,1.65,0,0,0,.589,1.03A3.987,3.987,0,0,0,668.93,762.876Z" transform="translate(-609.114 -667.334)" fill="#bbbdc8"/>
    <path id="Path_851" data-name="Path 851" d="M665.81,324.467a6.7,6.7,0,0,0,.445-3.066c0-.417-.008-.847-.018-1.27v-.01a21.645,21.645,0,0,0-.161-2.319h0c-.048-.367-.112-.729-.191-1.083.06-.021.12-.04.182-.057a4.961,4.961,0,0,1,2.893,0,4,4,0,0,1,.82.162.308.308,0,0,1,.165.176,3.5,3.5,0,0,1-.118.961h0a2.777,2.777,0,0,0-.064.533c.009.171.026.34.051.507.043.307.1.611.126.922.047.53.005,1.07.028,1.6a2.673,2.673,0,0,0,.391,1.445A13.219,13.219,0,0,0,665.81,324.467Z" transform="translate(-610.513 -284.659)" fill="#fda8a8"/>
    <path id="Path_852" data-name="Path 852" d="M672.74,318.959c-.121.015-.242.033-.365.054a13.091,13.091,0,0,0-3.575,1.139v-.01l-.162-2.319h0V317.4c0-.237,0-.478-.008-.716a4.96,4.96,0,0,1,2.893,0,4,4,0,0,1,.82.162c0,.226,0,.453.006.679a4.474,4.474,0,0,0,.041.458h0A2.121,2.121,0,0,0,672.74,318.959Z" transform="translate(-613.076 -284.677)" opacity="0.1"/>
    <ellipse id="Ellipse_142" data-name="Ellipse 142" cx="3.372" cy="5.137" rx="3.372" ry="5.137" transform="translate(53.993 24.645)" fill="#fda8a8"/>
    <path id="Path_853" data-name="Path 853" d="M641.384,372.29a14.206,14.206,0,0,1,1.378-9.244,5.251,5.251,0,0,1,1.055-1.491,3.541,3.541,0,0,1,3.112-.124,4.7,4.7,0,0,1,1.4,2.138,9.118,9.118,0,0,1,.787,3.009c.031.646-.044,1.3.019,1.944.08.815.378,1.545.5,2.348.067.433.08.882.123,1.323a17.886,17.886,0,0,0,.281,1.783,84.729,84.729,0,0,0,3.7,13.151,30.145,30.145,0,0,1,1.249,3.767,4.688,4.688,0,0,1,.126,1.869c-.189,1.027-1.041,1.631-1.677,1.189a.6.6,0,0,1-.175.591.744.744,0,0,1-.483.139l-5.628.228a1.382,1.382,0,0,0-.438.09c-.662.258-.413.694-.484,1.058-.086.444-.5.408-.8.278.045.648.055,1.441-.495,1.63a.622.622,0,0,1-.43-.022,6.016,6.016,0,0,0-3.056-.375c-.375.053-.8.117-1.083-.278a2.515,2.515,0,0,1-.3-1.19c-.56-6.8.592-13.616,1.458-20.338a12.214,12.214,0,0,0-.1-3.261Z" transform="translate(-586.98 -323.138)" fill="#f75842"/>
    <path id="Path_854" data-name="Path 854" d="M732.377,354.85a11.751,11.751,0,0,1,.342,1.762c.035.489-.007.983.012,1.473a11.1,11.1,0,0,0,.22,1.6q.263,1.517.648,2.975a2.923,2.923,0,0,1,.165,1.37c-.1.451-.4.73-.491,1.179a1.845,1.845,0,0,0,.324,1.318c.232.346.523.591.738.959a8.1,8.1,0,0,1,.529,1.389,14.486,14.486,0,0,0,.8,1.784l1.1,2.178a1.18,1.18,0,0,0,.264.389c.365.289.746-.293,1.117-.555.492-.357,1.068-.147,1.612-.088a1.215,1.215,0,0,0,1.393-.93,3.073,3.073,0,0,0,.039-.972,13.684,13.684,0,0,0-.621-3.184,14.839,14.839,0,0,1-.566-1.841c-.1-.529-.122-1.086-.2-1.623s-.224-1.051-.339-1.576c-.815-3.729-.2-7.81-.466-11.72-.1-1.443-.386-3.024-1.2-3.775a2.5,2.5,0,0,0-1.64-.555l-.26-.018-.418-.032a4.532,4.532,0,0,0-1.8.115,2.929,2.929,0,0,0-1.86,2.67A24.48,24.48,0,0,0,732.377,354.85Z" transform="translate(-670.502 -310.387)" fill="#6c63ff"/>
    <path id="Path_855" data-name="Path 855" d="M772.09,346.54a24.176,24.176,0,0,1,.167,2.863c.016,2.741.21,5.47.405,8.192l.128,1.8a2.7,2.7,0,0,0,.182.951c.13.268.4.408.576.2a10.1,10.1,0,0,0,.064-1.963q-.068-2.1-.136-4.192c-.044-1.361-.091-2.723-.2-4.075q-.127-1.571-.375-3.112a5.093,5.093,0,0,0-.13-.621l-.26-.018Z" transform="translate(-707.108 -310.574)" opacity="0.1"/>
    <path id="Path_856" data-name="Path 856" d="M669.361,354.369a2.318,2.318,0,0,0-1.674.111,4,4,0,0,0-1.276,1.484,5.77,5.77,0,0,0-.609,1.345,8.229,8.229,0,0,0,0,3.5,18.63,18.63,0,0,0,3.189,8.331,13.223,13.223,0,0,0,1.6,1.666,9.814,9.814,0,0,0,2.288,1.626.961.961,0,0,0,.7.119.766.766,0,0,0,.456-.719,30.78,30.78,0,0,1-3.682-4.049,10.041,10.041,0,0,1-.9-1.25c-.417-.715-.712-1.579-1.116-2.31a13.415,13.415,0,0,1-1.094-1.962,7.337,7.337,0,0,1-.34-1.635,9.288,9.288,0,0,1,.142-3.484c.3-1.087,1-1.98,1.771-1.96a2.379,2.379,0,0,1,1.142.485l2.305,1.483c-.028-.019.132-.629.125-.714a.712.712,0,0,0-.182-.471,3.039,3.039,0,0,0-.843-.768A5.419,5.419,0,0,0,669.361,354.369Z" transform="translate(-610.333 -317.228)" fill="#6c63ff"/>
    <path id="Path_857" data-name="Path 857" d="M649.087,257.252a3.715,3.715,0,0,0,1.767-1.388l-.482,3.854a12.04,12.04,0,0,0,1.394-1.144,18.318,18.318,0,0,1-.456,5.208,6.742,6.742,0,0,1-2.268,3.839c.937.239,1.778-.786,2.612-1.479.581-.482,1.574.014,2.21-.278a5.736,5.736,0,0,0,1.58-.884c.9-.8,1.109-3.152,1.292-4.721a15.326,15.326,0,0,0-.288-4.721,11.193,11.193,0,0,0-.409-1.563,4.218,4.218,0,0,0-2.252-2.649,2.572,2.572,0,0,0-2.8.73,14.9,14.9,0,0,0-2.261,3.259c-.091.162-.468.74-.343.983.152.294,1.045-.544,1.2-.658A5.3,5.3,0,0,1,649.087,257.252Z" transform="translate(-594.647 -228.442)" fill="#ffd566"/>
    <g id="Group_22" data-name="Group 22" transform="translate(52.94 42.438)" opacity="0.1">
      <path id="Path_858" data-name="Path 858" d="M645.232,424.428a.621.621,0,0,1-.43-.022,6.017,6.017,0,0,0-3.056-.375c-.375.053-.8.117-1.083-.278a2.509,2.509,0,0,1-.3-1.19c-.56-6.8.592-13.616,1.458-20.338a12.211,12.211,0,0,0-.1-3.261l-.041-.215a14.812,14.812,0,0,1,.058-5.6,14.774,14.774,0,0,0-.333,6.714l.041.215a12.215,12.215,0,0,1,.1,3.261c-.863,6.721-2.015,13.538-1.458,20.337a2.522,2.522,0,0,0,.3,1.19c.273.39.707.326,1.083.278a6.017,6.017,0,0,1,3.056.375.62.62,0,0,0,.43.022c.448-.154.524-.711.513-1.262A.606.606,0,0,1,645.232,424.428Z" transform="translate(-639.941 -393.15)"/>
      <path id="Path_859" data-name="Path 859" d="M710.661,586.075a.6.6,0,0,1-.175.591.743.743,0,0,1-.483.139l-5.628.228a1.373,1.373,0,0,0-.438.09c-.662.258-.413.694-.484,1.058-.086.444-.5.408-.8.278a3.146,3.146,0,0,1-.076,1.177.439.439,0,0,0,.6-.344c.068-.351-.178-.8.484-1.058a1.38,1.38,0,0,1,.438-.09l5.624-.228a.744.744,0,0,0,.483-.139.6.6,0,0,0,.175-.591c.638.443,1.489-.161,1.677-1.189a2.934,2.934,0,0,0,.047-.478C711.768,586.142,711.151,586.42,710.661,586.075Z" transform="translate(-696.873 -558.811)"/>
    </g>
    <path id="Path_860" data-name="Path 860" d="M602.1,380.56q.726,2.352,1.282,4.814a14.118,14.118,0,0,1,.463,4.1c-.1,1.388-.638,2.791-1.512,3.228a2.709,2.709,0,0,1-1.161.2,16.35,16.35,0,0,0-2.8.344,8.3,8.3,0,0,1-1.3.221c-.618.031-1.235-.117-1.851-.04-1,.124-1.944.833-2.944.833a.532.532,0,0,1-.355-.1,1.414,1.414,0,0,1-.325-.775,3.869,3.869,0,0,1-.013-2.067,1.624,1.624,0,0,1,1.525-.972q1.935-.209,3.875-.292a3.828,3.828,0,0,0,3.155-1.175.688.688,0,0,0,.138-.242,1.152,1.152,0,0,0-.011-.5,32.485,32.485,0,0,1-.432-6.185,1.3,1.3,0,0,1,.091-.53.577.577,0,0,1,.289-.255,2.851,2.851,0,0,1,2.358-.1" transform="translate(-542.925 -339.87)" fill="#fda8a8"/>
    <path id="Path_861" data-name="Path 861" d="M679.888,366.862a.8.8,0,0,0-.33.371c.036-.579-.013-1.164-.006-1.747a3.716,3.716,0,0,1,.32-1.644,1.494,1.494,0,0,1,1.318-.8,2.264,2.264,0,0,1,1.962,1.02,3.78,3.78,0,0,1,.615,1.8c.016.19.071.9-.059,1.026-.114.108-.547-.265-.686-.325A3.162,3.162,0,0,0,679.888,366.862Z" transform="translate(-623.002 -324.78)" fill="#f75842"/>
    <ellipse id="Ellipse_143" data-name="Ellipse 143" cx="1" rx="1" transform="translate(43.007 8.274)" fill="#6c63ff" opacity="0.1"/>
    <ellipse id="Ellipse_144" data-name="Ellipse 144" cx="1.5" rx="1.5" transform="translate(45.007 27.274)" fill="#6c63ff" opacity="0.1"/>
    <ellipse id="Ellipse_145" data-name="Ellipse 145" cx="1" cy="2" rx="1" ry="2" transform="translate(34.007 8.274)" fill="#6c63ff" opacity="0.1"/>
    <ellipse id="Ellipse_146" data-name="Ellipse 146" cx="1" cy="1.5" rx="1" ry="1.5" transform="translate(16.007 52.274)" fill="#6c63ff" opacity="0.1"/>
    <ellipse id="Ellipse_147" data-name="Ellipse 147" cy="1.5" ry="1.5" transform="translate(82.007 12.274)" fill="#6c63ff" opacity="0.1"/>
    <ellipse id="Ellipse_148" data-name="Ellipse 148" cx="2.5" cy="3" rx="2.5" ry="3" transform="translate(79.007 23.274)" fill="#6c63ff" opacity="0.1"/>
    <circle id="Ellipse_149" data-name="Ellipse 149" cx="2" cy="2" r="2" transform="translate(84.007 15.274)" fill="#6c63ff" opacity="0.1"/>
    <ellipse id="Ellipse_150" data-name="Ellipse 150" cx="1.5" cy="2" rx="1.5" ry="2" transform="translate(79.007 33.274)" fill="#6c63ff" opacity="0.1"/>
    <circle id="Ellipse_151" data-name="Ellipse 151" transform="translate(43.007 15.274)" fill="#6c63ff" opacity="0.1"/>
    <circle id="Ellipse_152" data-name="Ellipse 152" transform="translate(18.007 67.274)" fill="#6c63ff" opacity="0.1"/>
    <ellipse id="Ellipse_153" data-name="Ellipse 153" cx="1" cy="2" rx="1" ry="2" transform="translate(16.007 40.274)" fill="#6c63ff" opacity="0.1"/>
    <ellipse id="Ellipse_154" data-name="Ellipse 154" cy="2" ry="2" transform="translate(52.007 4.274)" fill="#6c63ff" opacity="0.1"/>
    <circle id="Ellipse_155" data-name="Ellipse 155" transform="translate(55.007 15.274)" fill="#6c63ff" opacity="0.1"/>
  </g>
</svg>
