<svg id="undraw_teaching_f1cm" xmlns="http://www.w3.org/2000/svg" width="100" height="100" viewBox="0 0 100 100">
  <rect id="Rectangle_95" data-name="Rectangle 95" width="9.068" height="3.43" rx="1.715" transform="translate(20.443 17.15)" fill="#6c63ff" opacity="0.1"/>
  <rect id="Rectangle_96" data-name="Rectangle 96" width="9.068" height="3.43" rx="1.715" transform="translate(29.933 20.58)" fill="#6c63ff" opacity="0.1"/>
  <rect id="Rectangle_97" data-name="Rectangle 97" width="9.068" height="3.43" rx="1.715" transform="translate(39.423 24.011)" fill="#6c63ff" opacity="0.1"/>
  <rect id="Rectangle_98" data-name="Rectangle 98" width="9.068" height="3.43" rx="1.715" transform="translate(20.443 12.005)" fill="#6c63ff" opacity="0.1"/>
  <rect id="Rectangle_99" data-name="Rectangle 99" width="9.068" height="3.43" rx="1.715" transform="translate(29.933 15.435)" fill="#6c63ff" opacity="0.1"/>
  <rect id="Rectangle_100" data-name="Rectangle 100" width="9.068" height="3.43" rx="1.715" transform="translate(39.423 18.865)" fill="#6c63ff" opacity="0.1"/>
  <rect id="Rectangle_101" data-name="Rectangle 101" width="9.068" height="3.43" rx="1.715" transform="translate(49.967 17.15)" fill="#6c63ff" opacity="0.1"/>
  <rect id="Rectangle_102" data-name="Rectangle 102" width="9.068" height="3.43" rx="1.715" transform="translate(59.457 20.58)" fill="#6c63ff" opacity="0.1"/>
  <rect id="Rectangle_103" data-name="Rectangle 103" width="9.068" height="3.43" rx="1.715" transform="translate(68.947 24.011)" fill="#6c63ff" opacity="0.1"/>
  <rect id="Rectangle_104" data-name="Rectangle 104" width="9.068" height="3.43" rx="1.715" transform="translate(49.967 12.005)" fill="#6c63ff" opacity="0.1"/>
  <rect id="Rectangle_105" data-name="Rectangle 105" width="9.068" height="3.43" rx="1.715" transform="translate(59.457 15.435)" fill="#6c63ff" opacity="0.1"/>
  <rect id="Rectangle_106" data-name="Rectangle 106" width="9.068" height="3.43" rx="1.715" transform="translate(68.947 18.865)" fill="#6c63ff" opacity="0.1"/>
  <rect id="Rectangle_107" data-name="Rectangle 107" width="9.068" height="3.43" rx="1.715" transform="translate(20.443 5.145)" fill="#6c63ff" opacity="0.1"/>
  <rect id="Rectangle_108" data-name="Rectangle 108" width="9.068" height="3.43" rx="1.715" transform="translate(29.933 8.575)" fill="#6c63ff" opacity="0.1"/>
  <rect id="Rectangle_109" data-name="Rectangle 109" width="9.068" height="3.43" rx="1.715" transform="translate(39.423 12.005)" fill="#6c63ff" opacity="0.1"/>
  <rect id="Rectangle_110" data-name="Rectangle 110" width="9.068" height="3.43" rx="1.715" transform="translate(20.443)" fill="#6c63ff" opacity="0.1"/>
  <rect id="Rectangle_111" data-name="Rectangle 111" width="9.068" height="3.43" rx="1.715" transform="translate(29.933 3.43)" fill="#6c63ff" opacity="0.1"/>
  <rect id="Rectangle_112" data-name="Rectangle 112" width="9.068" height="3.43" rx="1.715" transform="translate(39.423 6.86)" fill="#6c63ff" opacity="0.1"/>
  <rect id="Rectangle_113" data-name="Rectangle 113" width="9.068" height="3.43" rx="1.715" transform="translate(49.967 5.145)" fill="#6c63ff" opacity="0.1"/>
  <rect id="Rectangle_114" data-name="Rectangle 114" width="9.068" height="3.43" rx="1.715" transform="translate(59.457 8.575)" fill="#6c63ff" opacity="0.1"/>
  <rect id="Rectangle_115" data-name="Rectangle 115" width="9.068" height="3.43" rx="1.715" transform="translate(68.947 12.005)" fill="#6c63ff" opacity="0.1"/>
  <rect id="Rectangle_116" data-name="Rectangle 116" width="9.068" height="3.43" rx="1.715" transform="translate(49.967)" fill="#6c63ff" opacity="0.1"/>
  <rect id="Rectangle_117" data-name="Rectangle 117" width="9.068" height="3.43" rx="1.715" transform="translate(59.457 3.43)" fill="#6c63ff" opacity="0.1"/>
  <rect id="Rectangle_118" data-name="Rectangle 118" width="9.068" height="3.43" rx="1.715" transform="translate(68.947 6.86)" fill="#6c63ff" opacity="0.1"/>
  <rect id="Rectangle_119" data-name="Rectangle 119" width="9.068" height="3.43" rx="1.715" transform="translate(20.443 78.232)" fill="#6c63ff" opacity="0.1"/>
  <rect id="Rectangle_120" data-name="Rectangle 120" width="9.068" height="3.43" rx="1.715" transform="translate(29.933 81.662)" fill="#6c63ff" opacity="0.1"/>
  <rect id="Rectangle_121" data-name="Rectangle 121" width="9.068" height="3.43" rx="1.715" transform="translate(39.423 85.092)" fill="#6c63ff" opacity="0.1"/>
  <rect id="Rectangle_122" data-name="Rectangle 122" width="9.068" height="3.43" rx="1.715" transform="translate(20.443 73.087)" fill="#6c63ff" opacity="0.1"/>
  <rect id="Rectangle_123" data-name="Rectangle 123" width="9.068" height="3.43" rx="1.715" transform="translate(29.933 76.517)" fill="#6c63ff" opacity="0.1"/>
  <rect id="Rectangle_124" data-name="Rectangle 124" width="9.068" height="3.43" rx="1.715" transform="translate(39.423 79.947)" fill="#6c63ff" opacity="0.1"/>
  <rect id="Rectangle_125" data-name="Rectangle 125" width="9.068" height="3.43" rx="1.715" transform="translate(49.967 78.232)" fill="#6c63ff" opacity="0.1"/>
  <rect id="Rectangle_126" data-name="Rectangle 126" width="9.068" height="3.43" rx="1.715" transform="translate(59.457 81.662)" fill="#6c63ff" opacity="0.1"/>
  <rect id="Rectangle_127" data-name="Rectangle 127" width="9.068" height="3.43" rx="1.715" transform="translate(68.947 85.092)" fill="#6c63ff" opacity="0.1"/>
  <rect id="Rectangle_128" data-name="Rectangle 128" width="9.068" height="3.43" rx="1.715" transform="translate(49.967 73.087)" fill="#6c63ff" opacity="0.1"/>
  <rect id="Rectangle_129" data-name="Rectangle 129" width="9.068" height="3.43" rx="1.715" transform="translate(59.457 76.517)" fill="#6c63ff" opacity="0.1"/>
  <rect id="Rectangle_130" data-name="Rectangle 130" width="9.068" height="3.43" rx="1.715" transform="translate(68.947 79.947)" fill="#6c63ff" opacity="0.1"/>
  <rect id="Rectangle_131" data-name="Rectangle 131" width="9.068" height="3.43" rx="1.715" transform="translate(20.443 66.227)" fill="#6c63ff" opacity="0.1"/>
  <rect id="Rectangle_132" data-name="Rectangle 132" width="9.068" height="3.43" rx="1.715" transform="translate(29.933 69.657)" fill="#6c63ff" opacity="0.1"/>
  <rect id="Rectangle_133" data-name="Rectangle 133" width="9.068" height="3.43" rx="1.715" transform="translate(39.423 73.087)" fill="#6c63ff" opacity="0.1"/>
  <rect id="Rectangle_134" data-name="Rectangle 134" width="9.068" height="3.43" rx="1.715" transform="translate(20.443 61.082)" fill="#6c63ff" opacity="0.1"/>
  <rect id="Rectangle_135" data-name="Rectangle 135" width="9.068" height="3.43" rx="1.715" transform="translate(29.933 64.512)" fill="#6c63ff" opacity="0.1"/>
  <rect id="Rectangle_136" data-name="Rectangle 136" width="9.068" height="3.43" rx="1.715" transform="translate(39.423 67.942)" fill="#6c63ff" opacity="0.1"/>
  <rect id="Rectangle_137" data-name="Rectangle 137" width="9.068" height="3.43" rx="1.715" transform="translate(49.967 66.227)" fill="#6c63ff" opacity="0.1"/>
  <rect id="Rectangle_138" data-name="Rectangle 138" width="9.068" height="3.43" rx="1.715" transform="translate(59.457 69.657)" fill="#6c63ff" opacity="0.1"/>
  <rect id="Rectangle_139" data-name="Rectangle 139" width="9.068" height="3.43" rx="1.715" transform="translate(68.947 73.087)" fill="#6c63ff" opacity="0.1"/>
  <rect id="Rectangle_140" data-name="Rectangle 140" width="9.068" height="3.43" rx="1.715" transform="translate(49.967 61.082)" fill="#6c63ff" opacity="0.1"/>
  <rect id="Rectangle_141" data-name="Rectangle 141" width="9.068" height="3.43" rx="1.715" transform="translate(59.457 64.512)" fill="#6c63ff" opacity="0.1"/>
  <rect id="Rectangle_142" data-name="Rectangle 142" width="9.068" height="3.43" rx="1.715" transform="translate(68.947 67.942)" fill="#6c63ff" opacity="0.1"/>
  <ellipse id="Ellipse_156" data-name="Ellipse 156" cx="46.238" cy="4.749" rx="46.238" ry="4.749" transform="translate(4.626 90.501)" fill="#6c63ff" opacity="0.1"/>
  <path id="Path_870" data-name="Path 870" d="M134.746,247.648c4.36,2.364,6.866,7.256,6.866,7.256a13.948,13.948,0,0,1-8.926-1.307c-4.361-2.363-6.866-7.256-6.866-7.256A13.938,13.938,0,0,1,134.746,247.648Z" transform="translate(-125.82 -223.004)" fill="#6c63ff"/>
  <path id="Path_871" data-name="Path 871" d="M326.832,162.09a10.2,10.2,0,0,1,3.645-4.09,14.226,14.226,0,0,1-1.239,5.921,10.172,10.172,0,0,1-3.646,4.08A14.09,14.09,0,0,1,326.832,162.09Z" transform="translate(-304.525 -146.522)" fill="#6c63ff"/>
  <path id="Path_872" data-name="Path 872" d="M239.973,155.792a16.781,16.781,0,0,0,3.624,7.145,20.053,20.053,0,0,0,.131-8.462,16.766,16.766,0,0,0-3.625-7.145A20.043,20.043,0,0,0,239.973,155.792Z" transform="translate(-227.58 -137.26)" fill="#46455b"/>
  <rect id="Rectangle_143" data-name="Rectangle 143" width="76.869" height="48.153" rx="7.21" transform="translate(12.534 18.338)" fill="#3f3d56"/>
  <path id="Path_873" data-name="Path 873" d="M118.87,482h76.869v1.951a.872.872,0,0,1-.76.951H119.63a.872.872,0,0,1-.76-.951Z" transform="translate(-106.336 -418.412)" opacity="0.1"/>
  <rect id="Rectangle_144" data-name="Rectangle 144" width="5.694" height="3.562" rx="1.781" transform="translate(20.021 60.026)" fill="#6c63ff"/>
  <rect id="Rectangle_145" data-name="Rectangle 145" width="3.901" height="0.528" rx="0.264" transform="translate(27.297 63.061)" fill="#6c63ff"/>
  <path id="Path_874" data-name="Path 874" d="M298.811,266.477c2.783.643,5.621,0,8.392-.435l8.422-1.319c.341-.054.836-.309,1.037.212a5.014,5.014,0,0,1,.045,1.259c.022.923.02,1.847,0,2.77-.038,1.765-.141,3.526-.273,5.284-.256,3.439-.619,6.86-.8,10.313-.093,1.757-.139,3.52-.1,5.277.009.419.023.839.043,1.257.022.468.19,1.164-.218,1.476a2.488,2.488,0,0,1-.958.223c-.422.083-.844.149-1.274.2a64.934,64.934,0,0,1-8.554.186l-8.594-.055-2.1-.015c-.19,0-.874.142-.991-.14a3.442,3.442,0,0,1,.105-.832q.048-.372.105-.743c.245-1.735.534-3.459.825-5.182.625-3.694,1.265-7.406,1.523-11.179.128-1.893.043-3.8.2-5.693.073-.877.159-2.835,1.092-2.913.791-.066,1.6,0,2.4,0a.2.2,0,0,0,0-.4c-.749,0-1.5-.025-2.247-.007a1.043,1.043,0,0,0-1.081.732,14.4,14.4,0,0,0-.563,5.034,75.733,75.733,0,0,1-1.13,11.355c-.309,1.891-.642,3.774-.949,5.666q-.217,1.356-.409,2.719c-.059.433-.357,1.387-.095,1.784s1.07.183,1.432.186l2.516.018,4.821.034c3.115.022,6.24.132,9.354.017A17.664,17.664,0,0,0,315.3,293a.862.862,0,0,0,.656-.955c.025-.892-.091-1.811-.105-2.707-.105-7.665,1.334-15.223,1.186-22.891-.009-.521.148-1.835-.308-2.15a.932.932,0,0,0-.685-.033c-.411.059-.821.132-1.233.193l-5.341.834c-1.707.264-3.413.549-5.124.792a14.55,14.55,0,0,1-5.443,0c-.2-.046-.285.335-.084.381Z" transform="translate(-274.978 -238.723)" fill="#6c63ff"/>
  <path id="Path_875" data-name="Path 875" d="M318.708,305.617l21.07-1.293c.2-.013.2-.409,0-.4l-21.07,1.293C318.506,305.233,318.505,305.628,318.708,305.617Z" transform="translate(-298.233 -273.198)" fill="#6c63ff"/>
  <path id="Path_876" data-name="Path 876" d="M380.34,283.609a.778.778,0,0,0-.132.594.64.64,0,0,0,.318.471,1.128,1.128,0,0,0,.9-.062c.422-.132.844-.249,1.277-.346a14.036,14.036,0,0,1,2.857-.332c.436-.007.87.018,1.306.042a1.172,1.172,0,0,0,.925-.2.865.865,0,0,0,.105-1.166c-.422-.482-1.331-.2-1.818-.152a33.207,33.207,0,0,0-5.258.982c-.2.053-.115.435.084.381a34.1,34.1,0,0,1,3.458-.744q.856-.132,1.716-.223c.27-.028.54-.053.81-.073a2.957,2.957,0,0,1,.325-.018c.334.009.373-.066.173.439-.178.447-.121.4-.43.381-.131,0-.262-.018-.392-.026q-.4-.021-.8-.022a14.2,14.2,0,0,0-1.706.1c-.481.058-.961.14-1.436.245-.3.066-.593.142-.887.227-.13.038-.26.078-.39.119-.062.021-.125.04-.188.059q-.346.15-.589-.4c.141-.183-.081-.464-.224-.28Z" transform="translate(-353.374 -254.453)" fill="#6c63ff"/>
  <path id="Path_877" data-name="Path 877" d="M375.134,332.675a4.555,4.555,0,0,0-4.179,1.979c-.787,1.2-1.235,3.264-.4,4.617.9,1.451,2.859,1.2,4.043.577a5.941,5.941,0,0,0,3-3.722,2.961,2.961,0,0,0-2.641-3.756c-.2,0-.2.4,0,.4a2.365,2.365,0,0,1,2.214,1.553,3.459,3.459,0,0,1-.527,3.166,4.955,4.955,0,0,1-3.918,2.453,2.09,2.09,0,0,1-2.177-1.594,4.488,4.488,0,0,1,.346-2.873,4.25,4.25,0,0,1,4.248-2.393c.2.009.2-.387,0-.4Z" transform="translate(-344.348 -297.888)" fill="#6c63ff"/>
  <path id="Path_878" data-name="Path 878" d="M398.709,348.2a.345.345,0,0,0-.392.073.577.577,0,0,0-.16.454.694.694,0,0,0,.826.629c.294-.032.638-.168.535-.628a.571.571,0,0,0-.257-.372.486.486,0,0,0-.3-.046c-.039,0-.4.164-.245-.033l-.249-.041a.375.375,0,0,1,.076.264.211.211,0,0,0,.08.169.132.132,0,0,0,.157,0,.179.179,0,0,1,.219.044.307.307,0,0,1,.067.265.215.215,0,0,0,.093.229.143.143,0,0,0,.2-.076,1.216,1.216,0,0,0,.075-.958c-.105-.168-.309-.117-.435-.02a1.682,1.682,0,0,0-.217.233c-.128.141-.211.207-.163-.063a1.62,1.62,0,0,1,.8-1.081l-.232-.223a4.631,4.631,0,0,1-.638,1.563l.27.14a.918.918,0,0,1,.43-.859h-.155l.082.169c-.031.249.274.356.3.1.04-.326-.124-.749-.429-.59a1.319,1.319,0,0,0-.545,1.176c0,.158.179.281.271.141a5.153,5.153,0,0,0,.718-1.74.23.23,0,0,0-.058-.207.134.134,0,0,0-.175-.016,1.959,1.959,0,0,0-.768.836,1.3,1.3,0,0,0-.159.979.36.36,0,0,0,.2.2.277.277,0,0,0,.256-.039,1.327,1.327,0,0,0,.265-.264c.039-.044.082-.119.134-.132.046-.04.044-.017-.007.07a.854.854,0,0,1-.092.385l.289.152a.762.762,0,0,0-.179-.682.444.444,0,0,0-.571-.074l.238.171a.846.846,0,0,0-.119-.466.163.163,0,0,0-.116-.095.141.141,0,0,0-.132.054.609.609,0,0,0,.011.766c.151.144.225,0,.39-.033.562-.091.234.226.036.236a.6.6,0,0,1-.265-.024q-.33-.14-.041-.36c.189.1.27-.286.084-.381Z" transform="translate(-369.438 -310.486)" fill="#6c63ff"/>
  <path id="Path_879" data-name="Path 879" d="M387.658,360.777c.13.528-.406.7-.66.884a1.632,1.632,0,0,0-.457.5,4.462,4.462,0,0,0-.452,1.547c-.04.249.265.355.306.106a5.368,5.368,0,0,1,.267-1.138,1.77,1.77,0,0,1,.816-.873,1.024,1.024,0,0,0,.485-1.131C387.9,360.429,387.6,360.533,387.658,360.777Z" transform="translate(-358.642 -322.337)" fill="#6c63ff"/>
  <path id="Path_880" data-name="Path 880" d="M391.694,360.37a.369.369,0,0,0-.264.4.872.872,0,0,0,.14.383,3.425,3.425,0,0,1,.306.832,2.229,2.229,0,0,1-.018,1.055c-.218.489-.613.4-.949.4-.316,0-.561.132-.55-.419a1.985,1.985,0,0,1,.316-.868l-.289-.048a8.579,8.579,0,0,1,.1,1.222c0,.183.225.285.294.1a8.964,8.964,0,0,0,.4-1.391l-.311-.053.055,1a.2.2,0,0,0,.117.187.147.147,0,0,0,.177-.087.491.491,0,0,0,.079-.178c.01-.062-.086-.48-.126-.331l.31.053.022-.953-.316.053a2.445,2.445,0,0,1,.059.831.16.16,0,1,0,.316.053l.2-1.28-.289.046a1.076,1.076,0,0,1,.054.57c-.023.253.293.251.316,0a1.706,1.706,0,0,0-.1-.769.151.151,0,0,0-.157-.094.175.175,0,0,0-.132.142l-.2,1.28.311.053a2.677,2.677,0,0,0-.071-.935.162.162,0,0,0-.173-.141.188.188,0,0,0-.137.192l-.022.953c0,.231.256.264.311.053l.017-.065a.237.237,0,0,0-.04-.193c-.328-.446-.394.264-.508.46l.3.1-.055-1c-.012-.214-.265-.28-.311-.053a8.325,8.325,0,0,1-.369,1.3l.3.1a9.267,9.267,0,0,0-.105-1.327.15.15,0,0,0-.289-.047c-.211.38-.576,1.21-.294,1.665.246.4,1.019.243,1.349.218.521-.037.71-.45.767-1.065a3.245,3.245,0,0,0-.039-.881,4.149,4.149,0,0,0-.4-1.123c.2-.046.115-.429-.084-.383Z" transform="translate(-362.15 -322.195)" fill="#6c63ff"/>
  <path id="Path_881" data-name="Path 881" d="M392.306,363.524l-.864,1.426.273.2.633-1.145-.289-.153-.315,1.505a.215.215,0,0,0,.093.229.143.143,0,0,0,.2-.076,7.175,7.175,0,0,1,.482-.848l-.264-.193a2.359,2.359,0,0,1-.4.914l.265.193a2.124,2.124,0,0,1,.115-.528c.081-.228-.176-.43-.273-.2a4.925,4.925,0,0,1-.3.6l.289.047.064-.376-.289-.048.046.33a.183.183,0,0,0,.113.138.138.138,0,0,0,.152-.051,4.127,4.127,0,0,0,.633-1.194h-.272a2.082,2.082,0,0,1,.149.528c.038.238.29.149.31-.053.045-.442.069-.887.07-1.332H392.6v.83c0,.215.282.278.311.053a1.778,1.778,0,0,1,.155-.567h-.277a1.049,1.049,0,0,1,.105.449.162.162,0,1,0,.316,0l.04-.264h-.3c.031.234.147,1.549-.266,1.394-.07-.021-.09-.016-.06.014l.094-.251.22-.584-.3-.1a1.78,1.78,0,0,1-.092.892.471.471,0,0,1-.6.153,1.243,1.243,0,0,1-.275-.361l-.216.264c.175.16.459.551.684.574.172.017.316-.161.429-.3a2.648,2.648,0,0,0,.516-1.693.162.162,0,1,0-.316,0v.451a.162.162,0,1,0,.316,0v-1.107a.162.162,0,1,0-.316,0,5.9,5.9,0,0,1-.055.792l.311.053q-.037-.473-.035-.949a.188.188,0,0,0-.137-.193.162.162,0,0,0-.173.141c-.047.252-.105.5-.161.747l.289-.047-.022-.106c-.015-.252-.331-.253-.316,0a.871.871,0,0,0,.065.306c.061.161.252.1.289-.047.06-.248.114-.5.161-.747l-.311-.053q0,.475.035.949c.016.2.277.29.31.053a6.784,6.784,0,0,0,.066-.9h-.316v1.107h.316v-.451h-.316a2.21,2.21,0,0,1-.385,1.356,1.5,1.5,0,0,1-.133.164c-.075.09-.143.077-.2-.041a2.75,2.75,0,0,1-.435-.4c-.131-.117-.31.115-.217.27.242.4.6.854,1.054.66.473-.21.538-1.012.5-1.54-.012-.175-.221-.294-.294-.1-.105.278-.211.555-.316.835a.866.866,0,0,0-.095.348c.035.3.323.248.5.231.686-.065.578-1.282.5-1.894-.026-.2-.263-.172-.3,0a1.432,1.432,0,0,0-.052.375h.316a1.875,1.875,0,0,0-.149-.648.145.145,0,0,0-.273,0,2.256,2.256,0,0,0-.188.66l.316.053v-.83a.162.162,0,1,0-.316,0c0,.446-.024.891-.07,1.332l.311-.053a2.647,2.647,0,0,0-.18-.617.145.145,0,0,0-.273,0,3.794,3.794,0,0,1-.583,1.113l.265.087-.046-.33a.15.15,0,0,0-.289-.047,1.053,1.053,0,0,0-.1.681c.026.187.216.168.289.048a4.924,4.924,0,0,0,.3-.6l-.273-.2a2.682,2.682,0,0,0-.148.621c-.019.174.147.356.265.193a2.884,2.884,0,0,0,.479-1.09c.039-.179-.159-.35-.265-.193a7.784,7.784,0,0,0-.527.923l.289.153.322-1.5a.215.215,0,0,0-.093-.229.143.143,0,0,0-.2.076l-.633,1.146c-.118.212.153.4.273.2l.86-1.425c.122-.2-.152-.4-.273-.2Z" transform="translate(-363.375 -324.46)" fill="#6c63ff"/>
  <path id="Path_882" data-name="Path 882" d="M525.745,311.585a30.223,30.223,0,0,0,3.389-3.621,52.121,52.121,0,0,1,3.8-3.686c2.545-2.243,5.218-4.249,7.889-6.251a.229.229,0,0,0,.052-.267.143.143,0,0,0-.211-.075c-2.671,2-5.345,4-7.89,6.251-1.2,1.055-2.374,2.174-3.5,3.362a34.377,34.377,0,0,1-3.69,3.946c-.174.132-.015.475.159.342Z" transform="translate(-483.362 -267.759)" fill="#6c63ff"/>
  <path id="Path_883" data-name="Path 883" d="M673.535,253.843a4.525,4.525,0,0,0-3.691,2.111,5.849,5.849,0,0,0-.028,4.865,2.686,2.686,0,0,0,3.6,1.073,3.338,3.338,0,0,0,2.5-3.185,9.266,9.266,0,0,0-.607-2.917c-.272-.774-.754-1.451-1.484-1.365-.2.024-.2.419,0,.4.977-.113,1.292,1.339,1.524,2.256a4.66,4.66,0,0,1,.075,2.72,3.167,3.167,0,0,1-1.812,1.6,3.09,3.09,0,0,1-2.32.264c-1.527-.534-1.949-2.955-1.509-4.673.506-1.979,2.3-2.561,3.759-2.745.2-.025.2-.421,0-.4Z" transform="translate(-611.993 -229.72)" fill="#6c63ff"/>
  <path id="Path_884" data-name="Path 884" d="M693.535,369.843a4.525,4.525,0,0,0-3.69,2.111,5.849,5.849,0,0,0-.029,4.865,2.686,2.686,0,0,0,3.6,1.073,3.339,3.339,0,0,0,2.5-3.185,9.268,9.268,0,0,0-.607-2.917c-.272-.774-.754-1.451-1.484-1.365-.2.024-.2.42,0,.4.977-.113,1.292,1.339,1.524,2.256a4.659,4.659,0,0,1,.075,2.72,3.167,3.167,0,0,1-1.811,1.6,3.09,3.09,0,0,1-2.32.264c-1.527-.534-1.949-2.955-1.509-4.673.506-1.979,2.3-2.561,3.759-2.745.2-.025.2-.421,0-.4Z" transform="translate(-629.884 -330.416)" fill="#6c63ff"/>
  <path id="Path_885" data-name="Path 885" d="M689.526,238.659l1,1.425a.138.138,0,0,0,.152.049.183.183,0,0,0,.112-.137,9.445,9.445,0,0,0,.22-2.142,8.51,8.51,0,0,1,.448-2.186,7.131,7.131,0,0,1,2.36-3.384c.174-.132.015-.475-.159-.342a7.391,7.391,0,0,0-2.386,3.28,9.007,9.007,0,0,0-.527,2.094,14.9,14.9,0,0,1-.263,2.575l.265-.088-.993-1.422c-.135-.191-.357.09-.224.28Z" transform="translate(-630.052 -210.683)" fill="#6c63ff"/>
  <path id="Path_886" data-name="Path 886" d="M531.3,410.978q8.158-.311,16.321-.132c.2,0,.2-.4,0-.4q-8.16-.182-16.321.132C531.1,410.59,531.1,410.986,531.3,410.978Z" transform="translate(-488.409 -365.61)" fill="#6c63ff"/>
  <path id="Path_887" data-name="Path 887" d="M697.3,382.7a30.726,30.726,0,0,1,5.343,3.359c.173.132.332-.207.159-.342a31.041,31.041,0,0,0-5.413-3.4c-.189-.094-.271.289-.083.381Z" transform="translate(-636.954 -341.239)" fill="#6c63ff"/>
  <path id="Path_888" data-name="Path 888" d="M703.87,371.29a18.6,18.6,0,0,0-3.1,9.832c-.008.255.308.255.316,0a18.1,18.1,0,0,1,3.008-9.553C704.225,371.377,704,371.1,703.87,371.29Z" transform="translate(-640.143 -331.617)" fill="#6c63ff"/>
  <path id="Path_889" data-name="Path 889" d="M328.9,399.821l11.786-.193,1.355-.022c.244,0,.487-.011.731-.012.343,0,.574.356.567.792-.016.924-.48.891-1.087.924l-1.465.083-5.964.328c-1.068.059-2.137.132-3.206.178-.964.037-2.8-.356-2.368-2.111.059-.244-.246-.348-.306-.106a2.157,2.157,0,0,0,.763,2.191c.853.641,1.977.423,2.919.371l7.322-.416,1.778-.1a3.228,3.228,0,0,0,1.508-.175,1.9,1.9,0,0,0,.268-2.059.662.662,0,0,0-.633-.3c-.656-.032-1.323.022-1.98.033l-3.651.061-8.342.132c-.2,0-.2.4,0,.4Z" transform="translate(-307.345 -355.889)" fill="#6c63ff"/>
  <g id="Michel" transform="translate(67.69 29.633)">
    <path id="Path_890" data-name="Path 890" d="M769.243,753.112c-.266.208-.569.326-.844.509a1.37,1.37,0,0,0-.619.839.652.652,0,0,0,.014.359.6.6,0,0,0,.3.293,3.664,3.664,0,0,0,3.544.05,4.168,4.168,0,0,1,.612-.3,3.212,3.212,0,0,1,.783-.1,4.9,4.9,0,0,0,.824-.132.657.657,0,0,0,.373-.194.991.991,0,0,0,.168-.5,5,5,0,0,0-.527-2.939.939.939,0,0,0-.23-.3.754.754,0,0,0-.366-.123,13.714,13.714,0,0,0-1.612-.244c-.382-.011-.574.216-.844.545C770.257,751.56,769.931,752.575,769.243,753.112Z" transform="translate(-767.762 -690.331)" fill="#323444"/>
    <path id="Path_891" data-name="Path 891" d="M854.973,752.6a3.617,3.617,0,0,0,.375,1.847,2.161,2.161,0,0,0,.512.561,1.924,1.924,0,0,0,2.237.274.729.729,0,0,0,.278-.293,1.231,1.231,0,0,0-.009-.769l-1.01-4.38a5.88,5.88,0,0,0-2.192.628C854.744,750.768,854.973,752.022,854.973,752.6Z" transform="translate(-845.721 -689.917)" fill="#323444"/>
    <path id="Path_892" data-name="Path 892" d="M771.809,558.5c-.061.241-.283.354-.4.557a1.293,1.293,0,0,0-.076.86,2.522,2.522,0,0,0,.463,1.141.972.972,0,0,0,.949.4.937.937,0,0,0,.644-.888,2.045,2.045,0,0,0-.1-.571l-.719-2.6a.135.135,0,0,0-.051-.088.088.088,0,0,0-.079.017c-.17.1-.51.206-.609.426S771.88,558.258,771.809,558.5Z" transform="translate(-770.92 -522.783)" fill="#fbb3b2"/>
    <path id="Path_893" data-name="Path 893" d="M773,551.162a3.05,3.05,0,0,0,.738-.371.633.633,0,0,1,.76.036c.059.061.116.144.193.143a11.238,11.238,0,0,0-.472-1.879.15.15,0,0,0-.041-.073.1.1,0,0,0-.09,0l-.71.232c-.263.086-.293.059-.273.383C773.111,549.777,773.17,551.162,773,551.162Z" transform="translate(-772.448 -515.579)" fill="#323444"/>
    <path id="Path_894" data-name="Path 894" d="M768.662,422.6a1.525,1.525,0,0,0-.105.7,29.543,29.543,0,0,0,.148,3.5c.033.277.074.554.095.834.024.389.029.78.015,1.17l-.105,5.079a3.53,3.53,0,0,1-.345,1.777,1.014,1.014,0,0,0-.123.563c.08,1.274.249,2.538.417,3.8a1.548,1.548,0,0,1,1.7.1,28.833,28.833,0,0,0,.874-6.464,32.067,32.067,0,0,1,.12-3.235,25.694,25.694,0,0,0-.032-5.447,3.517,3.517,0,0,0-.454-1.606,1.9,1.9,0,0,0-1.055-.76A3.7,3.7,0,0,0,768.662,422.6Z" transform="translate(-768.188 -405.8)" fill="#5b5583"/>
    <path id="Path_895" data-name="Path 895" d="M768.662,422.6a1.525,1.525,0,0,0-.105.7,29.543,29.543,0,0,0,.148,3.5c.033.277.074.554.095.834.024.389.029.78.015,1.17l-.105,5.079a3.53,3.53,0,0,1-.345,1.777,1.014,1.014,0,0,0-.123.563c.08,1.274.249,2.538.417,3.8a1.548,1.548,0,0,1,1.7.1,28.833,28.833,0,0,0,.874-6.464,32.067,32.067,0,0,1,.12-3.235,25.694,25.694,0,0,0-.032-5.447,3.517,3.517,0,0,0-.454-1.606,1.9,1.9,0,0,0-1.055-.76A3.7,3.7,0,0,0,768.662,422.6Z" transform="translate(-768.188 -405.8)" opacity="0.1"/>
    <path id="Path_896" data-name="Path 896" d="M781.555,522.9a28.764,28.764,0,0,0,1.109,13.488,4.331,4.331,0,0,1,.257,1,6.345,6.345,0,0,1-.316,1.893,12.509,12.509,0,0,0,.068,4.392q.127.91.26,1.819a3.444,3.444,0,0,1-.047,1.769c.189.984.3,1.959.489,2.943a.692.692,0,0,1,.018.241.72.72,0,0,1-.193.323,1.7,1.7,0,0,0-.294,1.381,1.489,1.489,0,0,1,1.7,0,3.987,3.987,0,0,0,1.687.66,6.638,6.638,0,0,1,.088-2.61,4.641,4.641,0,0,0,.406-1.431,12.921,12.921,0,0,0-.284-1.311,4.14,4.14,0,0,1,.025-.839,26.161,26.161,0,0,0-.179-4.858,3.512,3.512,0,0,0-.177-.923,1.578,1.578,0,0,1-.185-.585,2.867,2.867,0,0,1,.218-.682c.105-.433-.089-1.021.2-1.289.77-.707.474-2.4.458-3.59q-.02-1.545-.105-3.087a16.226,16.226,0,0,1,.582,5.322,4.733,4.733,0,0,0,.089,1.759,8.161,8.161,0,0,1,.5,1.21,6.3,6.3,0,0,1,.024.838.954.954,0,0,0,.279.726c.015,1.272.105,2.632.121,3.9a12,12,0,0,0,.127,1.939,3.047,3.047,0,0,1,.078.625,3.141,3.141,0,0,1-.167.769,5.331,5.331,0,0,0,.527,4.07,1.537,1.537,0,0,1,1.274-.892,3.772,3.772,0,0,1,1.5.274,4.455,4.455,0,0,1,.35-2.229,2.065,2.065,0,0,0,.185-.5,2.69,2.69,0,0,0-.148-1,6.272,6.272,0,0,1-.049-1.648,32.54,32.54,0,0,0-.2-5.53,5.672,5.672,0,0,0-.2-1.055c-.038-.121-.084-.237-.116-.36a3.51,3.51,0,0,1-.084-.675l-.121-2.111a18.264,18.264,0,0,1,.574-4.383c.121-.646.253-1.292.334-1.948.111-.894.129-1.809.291-2.691a21,21,0,0,0,.463-2.375,9.214,9.214,0,0,0-.738-3.625c-.169-.475-.807-.427-1.217-.512a13.44,13.44,0,0,0-8.717.745A2.23,2.23,0,0,0,781.555,522.9Z" transform="translate(-779.792 -491.372)" fill="#3c354c"/>
    <path id="Path_897" data-name="Path 897" d="M800.729,349.938l.323,1.57a5.17,5.17,0,0,1,.145,1.109,1,1,0,0,1-.071.4.882.882,0,0,1-.2.256c-.22.21-.373.7-.625.844.13.282.309.1.543.24a5.469,5.469,0,0,0,1.237.735,2.235,2.235,0,0,0,1.283-.132,4.1,4.1,0,0,0,1.662-.967,2.153,2.153,0,0,0,.748-1.686c-.527.078-1-.588-1.229-1.187a3.845,3.845,0,0,1-.177-.711l-.283-1.555a5.655,5.655,0,0,0-.853.5,2.526,2.526,0,0,1-.969.175,8.474,8.474,0,0,0-1.725.28c-.078.02-.176.082-.157.177" transform="translate(-796.869 -341.828)" fill="#fbb3b2"/>
    <path id="Path_898" data-name="Path 898" d="M800.729,349.938l.323,1.57a5.17,5.17,0,0,1,.145,1.109,1,1,0,0,1-.071.4.882.882,0,0,1-.2.256c-.22.21-.373.7-.625.844.13.282.309.1.543.24a5.469,5.469,0,0,0,1.237.735,2.235,2.235,0,0,0,1.283-.132,4.1,4.1,0,0,0,1.662-.967,2.153,2.153,0,0,0,.748-1.686c-.527.078-1-.588-1.229-1.187a3.845,3.845,0,0,1-.177-.711l-.283-1.555a5.655,5.655,0,0,0-.853.5,2.526,2.526,0,0,1-.969.175,8.474,8.474,0,0,0-1.725.28c-.078.02-.176.082-.157.177" transform="translate(-796.869 -341.828)" opacity="0.1"/>
    <ellipse id="Ellipse_157" data-name="Ellipse 157" cx="2.792" cy="3.493" rx="2.792" ry="3.493" transform="translate(2.454 1.989)" fill="#fbb3b2"/>
    <path id="Path_899" data-name="Path 899" d="M797.292,364.51a3.2,3.2,0,0,1,.633-1.055c.393-.431.931-.781,1.024-1.425l.852,1.241a.493.493,0,0,1,.025.613,3.905,3.905,0,0,1-.857,1.026,28.988,28.988,0,0,0-2.066,2.28.21.21,0,0,1-.111.084.171.171,0,0,1-.115-.041,5.2,5.2,0,0,1-1.473-1.5c-.031-.046-.069-.1-.118-.1a.145.145,0,0,0-.079.052c-.284.29-.594.637-.957.592a3.063,3.063,0,0,0,.837-1.847,4.26,4.26,0,0,1,.12-.722.685.685,0,0,1,.411-.488,1.364,1.364,0,0,0,.236,1.417,2.178,2.178,0,0,0,1.046.635C797.059,365.364,797.165,364.856,797.292,364.51Z" transform="translate(-791.278 -353.269)" fill="#323444"/>
    <path id="Path_900" data-name="Path 900" d="M779.214,520.547c.4.123.774.331,1.16.486a4.5,4.5,0,0,0,2.177.286,1.022,1.022,0,0,0,.633-.252c.05-.05.095-.109.148-.156a.93.93,0,0,1,.284-.146,8,8,0,0,0,2.562-1.995.142.142,0,0,0,.052-.1.144.144,0,0,0-.032-.075l-.413-.594a13.681,13.681,0,0,1-3.294.11,3.835,3.835,0,0,0-.677.022,5.589,5.589,0,0,0-.645.158c-.813.222-1.644.306-2.467.451a.329.329,0,0,0-.164.063.439.439,0,0,0-.087.121l-.289.508a1.767,1.767,0,0,0-.243.582c-.067.4.074.528.343.476A2.015,2.015,0,0,1,779.214,520.547Z" transform="translate(-776.832 -488.662)" fill="#323444"/>
    <path id="Path_901" data-name="Path 901" d="M776.1,374.83a5.494,5.494,0,0,0-1.087-1.062,1.383,1.383,0,0,0-.527-.264.563.563,0,0,0-.54.166c-.094.1-.153.249-.244.359a1.176,1.176,0,0,1-.386.273,6.646,6.646,0,0,0-1.356.967,3.512,3.512,0,0,0-.615.71,5.219,5.219,0,0,0-.537,2.777,3.188,3.188,0,0,0,.884,1.682,12.736,12.736,0,0,1,.9,1.583,2.5,2.5,0,0,1,.368,1.244,8.649,8.649,0,0,0-.166,1.088c.009.132.043.253.053.381a5.332,5.332,0,0,1-.085.792c-.029.373.068.744.074,1.12a4.42,4.42,0,0,1-.078.764,17.643,17.643,0,0,0-.4,3.649l-.584.132a.717.717,0,0,1,.143.528.631.631,0,0,1-.256.457,7.2,7.2,0,0,0,2.865.187c.8,0,1.6.132,2.4.113a3.533,3.533,0,0,0,2.283-.765c.179-.153.344-.332.533-.466a2.279,2.279,0,0,1,.807-.33,6.447,6.447,0,0,1,1.582-.177,1.016,1.016,0,0,0,.749-.182,1.524,1.524,0,0,0,.316-.963c.031-.375.05-.751.055-1.127a6.065,6.065,0,0,0-.037-.876q-.048-.318-.123-.628l-.4-1.752a8.148,8.148,0,0,1,.113-2.265.677.677,0,0,0-.095-.5c-.039-.041-.093-.069-.106-.132a.275.275,0,0,1,.025-.177,10.138,10.138,0,0,1,.816-1.47q.728-1.253,1.35-2.595a9.44,9.44,0,0,0-1.786-5,2.029,2.029,0,0,0-.747-.69,1.812,1.812,0,0,0-.595-.12,4.573,4.573,0,0,1-2.407-.652.416.416,0,0,0-.172-.091c-.159-.022-.275.174-.379.33a4.751,4.751,0,0,1-1,.914A8.3,8.3,0,0,0,776.1,374.83Z" transform="translate(-770.486 -361.513)" fill="#5b5583"/>
    <path id="Path_902" data-name="Path 902" d="M869.222,415.384a12.291,12.291,0,0,1,.2,2.028,9.68,9.68,0,0,0,.172,1.215,2.233,2.233,0,0,0,.2.619,2.8,2.8,0,0,1,.291.512,1.527,1.527,0,0,1,.043.412l.013.91a4.026,4.026,0,0,1-.172,1.417l-.454,1.73a12.119,12.119,0,0,1-.941,2.7.708.708,0,0,1-.271.318,1.078,1.078,0,0,1-.273.053.845.845,0,0,0-.579.854,1.873,1.873,0,0,0-.389-.5l-.925-.924a3.991,3.991,0,0,0-1.03-.835,3.4,3.4,0,0,0,1.942-2.937,1.6,1.6,0,0,1,.105-.578c.077-.156.219-.274.23-.458.013-.231-.2-.405-.2-.636a1.6,1.6,0,0,1,.131-.423,1.326,1.326,0,0,0,0-.542l-.128-.887a.809.809,0,0,0-.063-.253,1.55,1.55,0,0,0-.158-.208,1.4,1.4,0,0,1,0-1.17,12.17,12.17,0,0,1,1.078-2.365,8.36,8.36,0,0,0,.429-.768c.112-.243.137-.579.255-.792C868.887,414.379,869.093,414.871,869.222,415.384Z" transform="translate(-854.845 -398.279)" fill="#5b5583"/>
    <path id="Path_903" data-name="Path 903" d="M859.728,504.585a.6.6,0,0,0-.12.158,1.107,1.107,0,0,1-.478.426c.105.095.2.189.3.285a15.058,15.058,0,0,1,2,2.4c.066-.3.464-.276.561-.559a.683.683,0,0,0,.021-.253,9.575,9.575,0,0,0-.152-1.319,1.708,1.708,0,0,0-.211-.617,1.232,1.232,0,0,0-.6-.422C860.724,504.534,860.065,504.33,859.728,504.585Z" transform="translate(-849.496 -476.912)" fill="#323444"/>
    <path id="Path_904" data-name="Path 904" d="M837.835,510.464a5.8,5.8,0,0,1-.949.86,3.264,3.264,0,0,0-.756.417.732.732,0,0,0,.717.486,1.511,1.511,0,0,0,.8-.368c.189-.145.41-.314.616-.212.032.2-.105.389-.105.592a.6.6,0,0,0,.268.458,2.977,2.977,0,0,0,2.2.409.172.172,0,0,0,.121-.045.28.28,0,0,0,.045-.174c.01-.208.014-.416.015-.624a1,1,0,0,0-.306-.881,8.918,8.918,0,0,0-1.318-1.168C838.722,509.877,838.251,510.076,837.835,510.464Z" transform="translate(-828.921 -481.754)" fill="#fbb3b2"/>
    <path id="Path_905" data-name="Path 905" d="M820.314,326.051a.938.938,0,0,0-.761,1.025.822.822,0,0,0,.933.769.938.938,0,0,0,.761-1.024A.825.825,0,0,0,820.314,326.051Zm.159,1.657a.7.7,0,0,1-.791-.652.794.794,0,0,1,.644-.867.7.7,0,0,1,.791.652A.794.794,0,0,1,820.473,327.708Z" transform="translate(-814.088 -322.028)" fill="#3c354c"/>
    <path id="Path_906" data-name="Path 906" d="M798.674,328.65a.937.937,0,0,0-.761,1.024.825.825,0,0,0,.933.77.938.938,0,0,0,.761-1.025A.823.823,0,0,0,798.674,328.65Zm.159,1.656a.7.7,0,0,1-.79-.65.8.8,0,0,1,.644-.868.7.7,0,0,1,.79.652A.794.794,0,0,1,798.833,330.306Z" transform="translate(-794.73 -324.285)" fill="#3c354c"/>
    <path id="Path_907" data-name="Path 907" d="M662.922,259.64l1.018.272-.1.335-.96-.352Z" transform="translate(-660.672 -255.02)" fill="#3c354c"/>
    <path id="Path_908" data-name="Path 908" d="M709.108,253.18l-.938.566.161.3.866-.627Z" transform="translate(-701.187 -249.412)" fill="#3c354c"/>
    <path id="Path_909" data-name="Path 909" d="M687.31,260.357l.714-.107-.037.222-.613.051Z" transform="translate(-682.526 -255.55)" fill="#3c354c"/>
    <path id="Path_910" data-name="Path 910" d="M785.294,300.129a1.722,1.722,0,0,0,.105-.577,1.5,1.5,0,0,1,.048-.351.984.984,0,0,1,.23-.368,1.878,1.878,0,0,1,1.265-.553,2.447,2.447,0,0,1,1.464.4,1.2,1.2,0,0,1,.364.338c.148.226.179.517.328.74a.761.761,0,0,0,.808.317,6.566,6.566,0,0,0,.011-.707,4.024,4.024,0,0,1,.168-.586,1.6,1.6,0,0,0-.566-1.662,2.187,2.187,0,0,1-.5-.4,3.246,3.246,0,0,1-.248-.541,1.024,1.024,0,0,0-1.306-.474c-.146.069-.274.173-.422.247a2.87,2.87,0,0,1-.888.214,2.3,2.3,0,0,0-.861.282,1.146,1.146,0,0,0-.539.728c-.029.143-.022.29-.051.431-.146.716-1.085,1.065-1.138,1.8a1.2,1.2,0,0,0,.239.732c.1.146.336.538.5.6s.3-.142.456-.211C785.015,300.421,785.167,300.4,785.294,300.129Z" transform="translate(-781.895 -295.621)" fill="#cbceda"/>
  </g>
  <path id="Path_911" data-name="Path 911" d="M912.81,682c0,6.628,3.324,11.992,7.431,11.992" transform="translate(-829.826 -601.393)" fill="#46455b"/>
  <path id="Path_912" data-name="Path 912" d="M983.28,693.117c0-6.7,3.71-12.127,8.293-12.127" transform="translate(-892.865 -600.516)" fill="#6c63ff"/>
  <path id="Path_913" data-name="Path 913" d="M938.35,686.56c0,6.3,2.119,11.392,4.738,11.392" transform="translate(-852.673 -605.352)" fill="#6c63ff"/>
  <path id="Path_914" data-name="Path 914" d="M983.28,670.946c0-8.565,4.287-15.5,9.585-15.5" transform="translate(-892.865 -578.346)" fill="#46455b"/>
  <ellipse id="Ellipse_158" data-name="Ellipse 158" cx="1.847" cy="0.391" rx="1.847" ry="0.391" transform="translate(88.246 94.109)" fill="#6c63ff" opacity="0.1"/>
  <path id="Path_915" data-name="Path 915" d="M968.46,768.863a3.182,3.182,0,0,0,1.371-.323c.316-.282,1.621-.621,1.7-.168s1.582,2.257.393,2.269a8.2,8.2,0,0,1-3.081-.474C968.526,769.926,968.46,768.863,968.46,768.863Z" transform="translate(-879.608 -676.178)" fill="#a8a8a8"/>
  <path id="Path_916" data-name="Path 916" d="M971.946,775.161a8.208,8.208,0,0,1-3.081-.473c-.241-.184-.337-.844-.37-1.148h-.035s.066,1.063.384,1.3a8.208,8.208,0,0,0,3.081.474c.344,0,.462-.157.456-.383C972.333,775.073,972.207,775.159,971.946,775.161Z" transform="translate(-879.608 -680.857)" opacity="0.2"/>
  <path id="Path_917" data-name="Path 917" d="M148.31,711.36c0,5.277,2.644,9.541,5.911,9.541" transform="translate(-145.939 -626.88)" fill="#46455b"/>
  <path id="Path_918" data-name="Path 918" d="M204.37,720.2c0-5.333,2.952-9.648,6.6-9.648" transform="translate(-196.087 -626.177)" fill="#6c63ff"/>
  <path id="Path_919" data-name="Path 919" d="M168.62,715c0,5.013,1.687,9.063,3.77,9.063" transform="translate(-164.107 -630.04)" fill="#6c63ff"/>
  <path id="Path_920" data-name="Path 920" d="M204.37,702.559c0-6.814,3.411-12.328,7.626-12.328" transform="translate(-196.087 -608.537)" fill="#46455b"/>
  <ellipse id="Ellipse_159" data-name="Ellipse 159" cx="1.47" cy="0.311" rx="1.47" ry="0.311" transform="translate(6.557 95.222)" fill="#6c63ff" opacity="0.1"/>
  <path id="Path_921" data-name="Path 921" d="M192.58,780.408a2.471,2.471,0,0,0,1.09-.264c.252-.231,1.291-.495,1.353-.132s1.26,1.8.316,1.8a6.563,6.563,0,0,1-2.452-.376C192.636,781.25,192.58,780.408,192.58,780.408Z" transform="translate(-185.54 -686.32)" fill="#a8a8a8"/>
  <path id="Path_922" data-name="Path 922" d="M195.353,785.51a6.511,6.511,0,0,1-2.452-.377c-.192-.145-.268-.672-.294-.913h-.027s.053.846.3,1.038a6.527,6.527,0,0,0,2.452.376c.273,0,.368-.124.363-.3C195.661,785.435,195.557,785.5,195.353,785.51Z" transform="translate(-185.54 -690.128)" opacity="0.2"/>
</svg>
